<?xml version="1.0" encoding="utf-8"?>
<svg xmlns="http://www.w3.org/2000/svg" xmlns:xlink="http://www.w3.org/1999/xlink" width="600" height="400" viewBox="0 0 2400 1600">
<defs>
  <clipPath id="clip370">
    <rect x="0" y="0" width="2400" height="1600"/>
  </clipPath>
</defs>
<path clip-path="url(#clip370)" d="M0 1600 L2400 1600 L2400 0 L0 0  Z" fill="#ffffff" fill-rule="evenodd" fill-opacity="1"/>
<defs>
  <clipPath id="clip371">
    <rect x="193" y="47" width="2160" height="1377"/>
  </clipPath>
</defs>
<path clip-path="url(#clip370)" d="M193.936 1423.18 L2352.76 1423.18 L2352.76 47.2441 L193.936 47.2441  Z" fill="#ffffff" fill-rule="evenodd" fill-opacity="1"/>
<polyline clip-path="url(#clip371)" style="stroke:#000000; stroke-linecap:round; stroke-linejoin:round; stroke-width:2; stroke-opacity:0.1; fill:none" points="193.936,1423.18 193.936,47.2441 "/>
<polyline clip-path="url(#clip371)" style="stroke:#000000; stroke-linecap:round; stroke-linejoin:round; stroke-width:2; stroke-opacity:0.1; fill:none" points="625.7,1423.18 625.7,47.2441 "/>
<polyline clip-path="url(#clip371)" style="stroke:#000000; stroke-linecap:round; stroke-linejoin:round; stroke-width:2; stroke-opacity:0.1; fill:none" points="1057.46,1423.18 1057.46,47.2441 "/>
<polyline clip-path="url(#clip371)" style="stroke:#000000; stroke-linecap:round; stroke-linejoin:round; stroke-width:2; stroke-opacity:0.1; fill:none" points="1489.23,1423.18 1489.23,47.2441 "/>
<polyline clip-path="url(#clip371)" style="stroke:#000000; stroke-linecap:round; stroke-linejoin:round; stroke-width:2; stroke-opacity:0.1; fill:none" points="1920.99,1423.18 1920.99,47.2441 "/>
<polyline clip-path="url(#clip371)" style="stroke:#000000; stroke-linecap:round; stroke-linejoin:round; stroke-width:2; stroke-opacity:0.1; fill:none" points="2352.76,1423.18 2352.76,47.2441 "/>
<polyline clip-path="url(#clip371)" style="stroke:#000000; stroke-linecap:round; stroke-linejoin:round; stroke-width:2; stroke-opacity:0.1; fill:none" points="193.936,1265.3 2352.76,1265.3 "/>
<polyline clip-path="url(#clip371)" style="stroke:#000000; stroke-linecap:round; stroke-linejoin:round; stroke-width:2; stroke-opacity:0.1; fill:none" points="193.936,974.815 2352.76,974.815 "/>
<polyline clip-path="url(#clip371)" style="stroke:#000000; stroke-linecap:round; stroke-linejoin:round; stroke-width:2; stroke-opacity:0.1; fill:none" points="193.936,684.328 2352.76,684.328 "/>
<polyline clip-path="url(#clip371)" style="stroke:#000000; stroke-linecap:round; stroke-linejoin:round; stroke-width:2; stroke-opacity:0.1; fill:none" points="193.936,393.841 2352.76,393.841 "/>
<polyline clip-path="url(#clip371)" style="stroke:#000000; stroke-linecap:round; stroke-linejoin:round; stroke-width:2; stroke-opacity:0.1; fill:none" points="193.936,103.355 2352.76,103.355 "/>
<polyline clip-path="url(#clip370)" style="stroke:#000000; stroke-linecap:round; stroke-linejoin:round; stroke-width:4; stroke-opacity:1; fill:none" points="193.936,1423.18 2352.76,1423.18 "/>
<polyline clip-path="url(#clip370)" style="stroke:#000000; stroke-linecap:round; stroke-linejoin:round; stroke-width:4; stroke-opacity:1; fill:none" points="193.936,1423.18 193.936,1404.28 "/>
<polyline clip-path="url(#clip370)" style="stroke:#000000; stroke-linecap:round; stroke-linejoin:round; stroke-width:4; stroke-opacity:1; fill:none" points="625.7,1423.18 625.7,1404.28 "/>
<polyline clip-path="url(#clip370)" style="stroke:#000000; stroke-linecap:round; stroke-linejoin:round; stroke-width:4; stroke-opacity:1; fill:none" points="1057.46,1423.18 1057.46,1404.28 "/>
<polyline clip-path="url(#clip370)" style="stroke:#000000; stroke-linecap:round; stroke-linejoin:round; stroke-width:4; stroke-opacity:1; fill:none" points="1489.23,1423.18 1489.23,1404.28 "/>
<polyline clip-path="url(#clip370)" style="stroke:#000000; stroke-linecap:round; stroke-linejoin:round; stroke-width:4; stroke-opacity:1; fill:none" points="1920.99,1423.18 1920.99,1404.28 "/>
<polyline clip-path="url(#clip370)" style="stroke:#000000; stroke-linecap:round; stroke-linejoin:round; stroke-width:4; stroke-opacity:1; fill:none" points="2352.76,1423.18 2352.76,1404.28 "/>
<path clip-path="url(#clip370)" d="M193.936 1454.1 Q190.325 1454.1 188.496 1457.66 Q186.691 1461.2 186.691 1468.33 Q186.691 1475.44 188.496 1479.01 Q190.325 1482.55 193.936 1482.55 Q197.57 1482.55 199.376 1479.01 Q201.204 1475.44 201.204 1468.33 Q201.204 1461.2 199.376 1457.66 Q197.57 1454.1 193.936 1454.1 M193.936 1450.39 Q199.746 1450.39 202.802 1455 Q205.88 1459.58 205.88 1468.33 Q205.88 1477.06 202.802 1481.67 Q199.746 1486.25 193.936 1486.25 Q188.126 1486.25 185.047 1481.67 Q181.992 1477.06 181.992 1468.33 Q181.992 1459.58 185.047 1455 Q188.126 1450.39 193.936 1450.39 Z" fill="#000000" fill-rule="nonzero" fill-opacity="1" /><path clip-path="url(#clip370)" d="M620.353 1481.64 L636.672 1481.64 L636.672 1485.58 L614.728 1485.58 L614.728 1481.64 Q617.39 1478.89 621.973 1474.26 Q626.58 1469.61 627.76 1468.27 Q630.006 1465.74 630.885 1464.01 Q631.788 1462.25 631.788 1460.56 Q631.788 1457.8 629.843 1456.07 Q627.922 1454.33 624.82 1454.33 Q622.621 1454.33 620.168 1455.09 Q617.737 1455.86 614.959 1457.41 L614.959 1452.69 Q617.783 1451.55 620.237 1450.97 Q622.691 1450.39 624.728 1450.39 Q630.098 1450.39 633.293 1453.08 Q636.487 1455.77 636.487 1460.26 Q636.487 1462.39 635.677 1464.31 Q634.89 1466.2 632.783 1468.8 Q632.205 1469.47 629.103 1472.69 Q626.001 1475.88 620.353 1481.64 Z" fill="#000000" fill-rule="nonzero" fill-opacity="1" /><path clip-path="url(#clip370)" d="M1060.47 1455.09 L1048.67 1473.54 L1060.47 1473.54 L1060.47 1455.09 M1059.25 1451.02 L1065.13 1451.02 L1065.13 1473.54 L1070.06 1473.54 L1070.06 1477.43 L1065.13 1477.43 L1065.13 1485.58 L1060.47 1485.58 L1060.47 1477.43 L1044.87 1477.43 L1044.87 1472.92 L1059.25 1451.02 Z" fill="#000000" fill-rule="nonzero" fill-opacity="1" /><path clip-path="url(#clip370)" d="M1489.63 1466.44 Q1486.48 1466.44 1484.63 1468.59 Q1482.8 1470.74 1482.8 1474.49 Q1482.8 1478.22 1484.63 1480.39 Q1486.48 1482.55 1489.63 1482.55 Q1492.78 1482.55 1494.61 1480.39 Q1496.46 1478.22 1496.46 1474.49 Q1496.46 1470.74 1494.61 1468.59 Q1492.78 1466.44 1489.63 1466.44 M1498.92 1451.78 L1498.92 1456.04 Q1497.16 1455.21 1495.35 1454.77 Q1493.57 1454.33 1491.81 1454.33 Q1487.18 1454.33 1484.73 1457.45 Q1482.3 1460.58 1481.95 1466.9 Q1483.31 1464.89 1485.37 1463.82 Q1487.43 1462.73 1489.91 1462.73 Q1495.12 1462.73 1498.13 1465.9 Q1501.16 1469.05 1501.16 1474.49 Q1501.16 1479.82 1498.01 1483.03 Q1494.86 1486.25 1489.63 1486.25 Q1483.64 1486.25 1480.47 1481.67 Q1477.3 1477.06 1477.3 1468.33 Q1477.3 1460.14 1481.18 1455.28 Q1485.07 1450.39 1491.62 1450.39 Q1493.38 1450.39 1495.17 1450.74 Q1496.97 1451.09 1498.92 1451.78 Z" fill="#000000" fill-rule="nonzero" fill-opacity="1" /><path clip-path="url(#clip370)" d="M1920.99 1469.17 Q1917.66 1469.17 1915.74 1470.95 Q1913.84 1472.73 1913.84 1475.86 Q1913.84 1478.98 1915.74 1480.77 Q1917.66 1482.55 1920.99 1482.55 Q1924.33 1482.55 1926.25 1480.77 Q1928.17 1478.96 1928.17 1475.86 Q1928.17 1472.73 1926.25 1470.95 Q1924.35 1469.17 1920.99 1469.17 M1916.32 1467.18 Q1913.31 1466.44 1911.62 1464.38 Q1909.95 1462.32 1909.95 1459.35 Q1909.95 1455.21 1912.89 1452.8 Q1915.85 1450.39 1920.99 1450.39 Q1926.15 1450.39 1929.09 1452.8 Q1932.03 1455.21 1932.03 1459.35 Q1932.03 1462.32 1930.34 1464.38 Q1928.68 1466.44 1925.69 1467.18 Q1929.07 1467.96 1930.95 1470.26 Q1932.84 1472.55 1932.84 1475.86 Q1932.84 1480.88 1929.77 1483.57 Q1926.71 1486.25 1920.99 1486.25 Q1915.27 1486.25 1912.2 1483.57 Q1909.14 1480.88 1909.14 1475.86 Q1909.14 1472.55 1911.04 1470.26 Q1912.94 1467.96 1916.32 1467.18 M1914.6 1459.79 Q1914.6 1462.48 1916.27 1463.98 Q1917.96 1465.49 1920.99 1465.49 Q1924 1465.49 1925.69 1463.98 Q1927.4 1462.48 1927.4 1459.79 Q1927.4 1457.11 1925.69 1455.6 Q1924 1454.1 1920.99 1454.1 Q1917.96 1454.1 1916.27 1455.6 Q1914.6 1457.11 1914.6 1459.79 Z" fill="#000000" fill-rule="nonzero" fill-opacity="1" /><path clip-path="url(#clip370)" d="M2327.44 1481.64 L2335.08 1481.64 L2335.08 1455.28 L2326.77 1456.95 L2326.77 1452.69 L2335.04 1451.02 L2339.71 1451.02 L2339.71 1481.64 L2347.35 1481.64 L2347.35 1485.58 L2327.44 1485.58 L2327.44 1481.64 Z" fill="#000000" fill-rule="nonzero" fill-opacity="1" /><path clip-path="url(#clip370)" d="M2366.8 1454.1 Q2363.18 1454.1 2361.36 1457.66 Q2359.55 1461.2 2359.55 1468.33 Q2359.55 1475.44 2361.36 1479.01 Q2363.18 1482.55 2366.8 1482.55 Q2370.43 1482.55 2372.23 1479.01 Q2374.06 1475.44 2374.06 1468.33 Q2374.06 1461.2 2372.23 1457.66 Q2370.43 1454.1 2366.8 1454.1 M2366.8 1450.39 Q2372.61 1450.39 2375.66 1455 Q2378.74 1459.58 2378.74 1468.33 Q2378.74 1477.06 2375.66 1481.67 Q2372.61 1486.25 2366.8 1486.25 Q2360.99 1486.25 2357.91 1481.67 Q2354.85 1477.06 2354.85 1468.33 Q2354.85 1459.58 2357.91 1455 Q2360.99 1450.39 2366.8 1450.39 Z" fill="#000000" fill-rule="nonzero" fill-opacity="1" /><path clip-path="url(#clip370)" d="M1272.41 1522.27 L1272.41 1532.4 L1284.47 1532.4 L1284.47 1536.95 L1272.41 1536.95 L1272.41 1556.3 Q1272.41 1560.66 1273.58 1561.9 Q1274.79 1563.14 1278.45 1563.14 L1284.47 1563.14 L1284.47 1568.04 L1278.45 1568.04 Q1271.67 1568.04 1269.1 1565.53 Q1266.52 1562.98 1266.52 1556.3 L1266.52 1536.95 L1262.22 1536.95 L1262.22 1532.4 L1266.52 1532.4 L1266.52 1522.27 L1272.41 1522.27 Z" fill="#000000" fill-rule="nonzero" fill-opacity="1" /><polyline clip-path="url(#clip370)" style="stroke:#000000; stroke-linecap:round; stroke-linejoin:round; stroke-width:4; stroke-opacity:1; fill:none" points="193.936,1423.18 193.936,47.2441 "/>
<polyline clip-path="url(#clip370)" style="stroke:#000000; stroke-linecap:round; stroke-linejoin:round; stroke-width:4; stroke-opacity:1; fill:none" points="193.936,1265.3 212.834,1265.3 "/>
<polyline clip-path="url(#clip370)" style="stroke:#000000; stroke-linecap:round; stroke-linejoin:round; stroke-width:4; stroke-opacity:1; fill:none" points="193.936,974.815 212.834,974.815 "/>
<polyline clip-path="url(#clip370)" style="stroke:#000000; stroke-linecap:round; stroke-linejoin:round; stroke-width:4; stroke-opacity:1; fill:none" points="193.936,684.328 212.834,684.328 "/>
<polyline clip-path="url(#clip370)" style="stroke:#000000; stroke-linecap:round; stroke-linejoin:round; stroke-width:4; stroke-opacity:1; fill:none" points="193.936,393.841 212.834,393.841 "/>
<polyline clip-path="url(#clip370)" style="stroke:#000000; stroke-linecap:round; stroke-linejoin:round; stroke-width:4; stroke-opacity:1; fill:none" points="193.936,103.355 212.834,103.355 "/>
<path clip-path="url(#clip370)" d="M50.9921 1265.75 L80.6679 1265.75 L80.6679 1269.69 L50.9921 1269.69 L50.9921 1265.75 Z" fill="#000000" fill-rule="nonzero" fill-opacity="1" /><path clip-path="url(#clip370)" d="M91.5706 1278.65 L99.2095 1278.65 L99.2095 1252.28 L90.8993 1253.95 L90.8993 1249.69 L99.1632 1248.02 L103.839 1248.02 L103.839 1278.65 L111.478 1278.65 L111.478 1282.58 L91.5706 1282.58 L91.5706 1278.65 Z" fill="#000000" fill-rule="nonzero" fill-opacity="1" /><path clip-path="url(#clip370)" d="M120.922 1276.7 L125.807 1276.7 L125.807 1282.58 L120.922 1282.58 L120.922 1276.7 Z" fill="#000000" fill-rule="nonzero" fill-opacity="1" /><path clip-path="url(#clip370)" d="M145.992 1251.1 Q142.381 1251.1 140.552 1254.67 Q138.746 1258.21 138.746 1265.34 Q138.746 1272.44 140.552 1276.01 Q142.381 1279.55 145.992 1279.55 Q149.626 1279.55 151.431 1276.01 Q153.26 1272.44 153.26 1265.34 Q153.26 1258.21 151.431 1254.67 Q149.626 1251.1 145.992 1251.1 M145.992 1247.4 Q151.802 1247.4 154.857 1252 Q157.936 1256.59 157.936 1265.34 Q157.936 1274.06 154.857 1278.67 Q151.802 1283.25 145.992 1283.25 Q140.181 1283.25 137.103 1278.67 Q134.047 1274.06 134.047 1265.34 Q134.047 1256.59 137.103 1252 Q140.181 1247.4 145.992 1247.4 Z" fill="#000000" fill-rule="nonzero" fill-opacity="1" /><path clip-path="url(#clip370)" d="M51.9875 975.267 L81.6633 975.267 L81.6633 979.202 L51.9875 979.202 L51.9875 975.267 Z" fill="#000000" fill-rule="nonzero" fill-opacity="1" /><path clip-path="url(#clip370)" d="M101.756 960.614 Q98.1447 960.614 96.316 964.179 Q94.5104 967.72 94.5104 974.85 Q94.5104 981.956 96.316 985.521 Q98.1447 989.063 101.756 989.063 Q105.39 989.063 107.196 985.521 Q109.024 981.956 109.024 974.85 Q109.024 967.72 107.196 964.179 Q105.39 960.614 101.756 960.614 M101.756 956.91 Q107.566 956.91 110.621 961.517 Q113.7 966.1 113.7 974.85 Q113.7 983.577 110.621 988.183 Q107.566 992.766 101.756 992.766 Q95.9456 992.766 92.8669 988.183 Q89.8114 983.577 89.8114 974.85 Q89.8114 966.1 92.8669 961.517 Q95.9456 956.91 101.756 956.91 Z" fill="#000000" fill-rule="nonzero" fill-opacity="1" /><path clip-path="url(#clip370)" d="M121.918 986.216 L126.802 986.216 L126.802 992.095 L121.918 992.095 L121.918 986.216 Z" fill="#000000" fill-rule="nonzero" fill-opacity="1" /><path clip-path="url(#clip370)" d="M137.033 957.535 L155.39 957.535 L155.39 961.47 L141.316 961.47 L141.316 969.943 Q142.334 969.595 143.353 969.433 Q144.371 969.248 145.39 969.248 Q151.177 969.248 154.556 972.419 Q157.936 975.591 157.936 981.007 Q157.936 986.586 154.464 989.688 Q150.992 992.766 144.672 992.766 Q142.496 992.766 140.228 992.396 Q137.982 992.026 135.575 991.285 L135.575 986.586 Q137.658 987.72 139.881 988.276 Q142.103 988.831 144.58 988.831 Q148.584 988.831 150.922 986.725 Q153.26 984.618 153.26 981.007 Q153.26 977.396 150.922 975.29 Q148.584 973.183 144.58 973.183 Q142.705 973.183 140.83 973.6 Q138.978 974.017 137.033 974.896 L137.033 957.535 Z" fill="#000000" fill-rule="nonzero" fill-opacity="1" /><path clip-path="url(#clip370)" d="M100.76 670.127 Q97.1493 670.127 95.3206 673.692 Q93.515 677.233 93.515 684.363 Q93.515 691.469 95.3206 695.034 Q97.1493 698.576 100.76 698.576 Q104.395 698.576 106.2 695.034 Q108.029 691.469 108.029 684.363 Q108.029 677.233 106.2 673.692 Q104.395 670.127 100.76 670.127 M100.76 666.423 Q106.571 666.423 109.626 671.03 Q112.705 675.613 112.705 684.363 Q112.705 693.09 109.626 697.696 Q106.571 702.28 100.76 702.28 Q94.9502 702.28 91.8715 697.696 Q88.816 693.09 88.816 684.363 Q88.816 675.613 91.8715 671.03 Q94.9502 666.423 100.76 666.423 Z" fill="#000000" fill-rule="nonzero" fill-opacity="1" /><path clip-path="url(#clip370)" d="M120.922 695.729 L125.807 695.729 L125.807 701.608 L120.922 701.608 L120.922 695.729 Z" fill="#000000" fill-rule="nonzero" fill-opacity="1" /><path clip-path="url(#clip370)" d="M145.992 670.127 Q142.381 670.127 140.552 673.692 Q138.746 677.233 138.746 684.363 Q138.746 691.469 140.552 695.034 Q142.381 698.576 145.992 698.576 Q149.626 698.576 151.431 695.034 Q153.26 691.469 153.26 684.363 Q153.26 677.233 151.431 673.692 Q149.626 670.127 145.992 670.127 M145.992 666.423 Q151.802 666.423 154.857 671.03 Q157.936 675.613 157.936 684.363 Q157.936 693.09 154.857 697.696 Q151.802 702.28 145.992 702.28 Q140.181 702.28 137.103 697.696 Q134.047 693.09 134.047 684.363 Q134.047 675.613 137.103 671.03 Q140.181 666.423 145.992 666.423 Z" fill="#000000" fill-rule="nonzero" fill-opacity="1" /><path clip-path="url(#clip370)" d="M101.756 379.64 Q98.1447 379.64 96.316 383.205 Q94.5104 386.747 94.5104 393.876 Q94.5104 400.983 96.316 404.547 Q98.1447 408.089 101.756 408.089 Q105.39 408.089 107.196 404.547 Q109.024 400.983 109.024 393.876 Q109.024 386.747 107.196 383.205 Q105.39 379.64 101.756 379.64 M101.756 375.936 Q107.566 375.936 110.621 380.543 Q113.7 385.126 113.7 393.876 Q113.7 402.603 110.621 407.209 Q107.566 411.793 101.756 411.793 Q95.9456 411.793 92.8669 407.209 Q89.8114 402.603 89.8114 393.876 Q89.8114 385.126 92.8669 380.543 Q95.9456 375.936 101.756 375.936 Z" fill="#000000" fill-rule="nonzero" fill-opacity="1" /><path clip-path="url(#clip370)" d="M121.918 405.242 L126.802 405.242 L126.802 411.121 L121.918 411.121 L121.918 405.242 Z" fill="#000000" fill-rule="nonzero" fill-opacity="1" /><path clip-path="url(#clip370)" d="M137.033 376.561 L155.39 376.561 L155.39 380.497 L141.316 380.497 L141.316 388.969 Q142.334 388.622 143.353 388.46 Q144.371 388.274 145.39 388.274 Q151.177 388.274 154.556 391.446 Q157.936 394.617 157.936 400.034 Q157.936 405.612 154.464 408.714 Q150.992 411.793 144.672 411.793 Q142.496 411.793 140.228 411.422 Q137.982 411.052 135.575 410.311 L135.575 405.612 Q137.658 406.746 139.881 407.302 Q142.103 407.858 144.58 407.858 Q148.584 407.858 150.922 405.751 Q153.26 403.645 153.26 400.034 Q153.26 396.422 150.922 394.316 Q148.584 392.21 144.58 392.21 Q142.705 392.21 140.83 392.626 Q138.978 393.043 137.033 393.922 L137.033 376.561 Z" fill="#000000" fill-rule="nonzero" fill-opacity="1" /><path clip-path="url(#clip370)" d="M91.5706 116.699 L99.2095 116.699 L99.2095 90.3338 L90.8993 92.0005 L90.8993 87.7413 L99.1632 86.0746 L103.839 86.0746 L103.839 116.699 L111.478 116.699 L111.478 120.635 L91.5706 120.635 L91.5706 116.699 Z" fill="#000000" fill-rule="nonzero" fill-opacity="1" /><path clip-path="url(#clip370)" d="M120.922 114.755 L125.807 114.755 L125.807 120.635 L120.922 120.635 L120.922 114.755 Z" fill="#000000" fill-rule="nonzero" fill-opacity="1" /><path clip-path="url(#clip370)" d="M145.992 89.1533 Q142.381 89.1533 140.552 92.7181 Q138.746 96.2597 138.746 103.389 Q138.746 110.496 140.552 114.061 Q142.381 117.602 145.992 117.602 Q149.626 117.602 151.431 114.061 Q153.26 110.496 153.26 103.389 Q153.26 96.2597 151.431 92.7181 Q149.626 89.1533 145.992 89.1533 M145.992 85.4496 Q151.802 85.4496 154.857 90.0561 Q157.936 94.6394 157.936 103.389 Q157.936 112.116 154.857 116.723 Q151.802 121.306 145.992 121.306 Q140.181 121.306 137.103 116.723 Q134.047 112.116 134.047 103.389 Q134.047 94.6394 137.103 90.0561 Q140.181 85.4496 145.992 85.4496 Z" fill="#000000" fill-rule="nonzero" fill-opacity="1" /><polyline clip-path="url(#clip371)" style="stroke:#009af9; stroke-linecap:round; stroke-linejoin:round; stroke-width:4; stroke-opacity:1; fill:none" points="193.936,684.328 196.097,686.174 198.258,687.995 200.419,689.791 202.58,691.564 204.741,693.314 206.902,695.04 209.063,696.744 211.224,698.424 213.385,700.083 215.546,701.72 217.707,703.334 219.868,704.928 222.029,706.5 224.19,708.052 226.351,709.582 228.512,711.093 230.673,712.584 232.834,714.054 234.995,715.506 237.156,716.938 239.317,718.351 241.478,719.745 243.639,721.121 245.8,722.479 247.961,723.818 250.122,725.14 252.282,726.444 254.443,727.732 256.604,729.001 258.765,730.255 260.926,731.491 263.087,732.711 265.248,733.915 267.409,735.103 269.57,736.275 271.731,737.432 273.892,738.574 276.053,739.7 278.214,740.811 280.375,741.908 282.536,742.99 284.697,744.057 286.858,745.111 289.019,746.15 291.18,747.176 293.341,748.188 295.502,749.187 297.663,750.173 299.824,751.145 301.985,752.105 304.146,753.051 306.307,753.986 308.468,754.908 310.629,755.817 312.79,756.715 314.951,757.601 317.112,758.475 319.273,759.337 321.434,760.188 323.595,761.028 325.756,761.856 327.917,762.674 330.078,763.481 332.239,764.277 334.4,765.062 336.561,765.837 338.722,766.602 340.883,767.356 343.044,768.101 345.205,768.836 347.366,769.561 349.527,770.276 351.688,770.982 353.849,771.679 356.01,772.366 358.171,773.044 360.332,773.713 362.493,774.374 364.653,775.025 366.814,775.668 368.975,776.303 371.136,776.929 373.297,777.546 375.458,778.156 377.619,778.757 379.78,779.351 381.941,779.936 384.102,780.514 386.263,781.084 388.424,781.647 390.585,782.202 392.746,782.75 394.907,783.291 397.068,783.824 399.229,784.35 401.39,784.87 403.551,785.382 405.712,785.888 407.873,786.297 410.034,785.401 412.195,783.026 414.356,779.416 416.517,774.801 418.678,769.388 420.839,763.368 423,756.912 425.161,750.173 427.322,743.284 429.483,736.361 431.644,729.498 433.805,722.774 435.966,716.247 438.127,709.955 440.288,703.921 442.449,698.147 444.61,692.614 446.771,687.288 448.932,682.114 451.093,677.019 453.254,671.91 455.415,666.716 457.576,661.565 459.737,656.483 461.898,651.468 464.059,646.519 466.22,641.636 468.381,636.818 470.542,632.064 472.703,627.373 474.864,622.744 477.024,618.176 479.185,613.669 481.346,609.221 483.507,604.833 485.668,600.502 487.829,596.229 489.99,592.013 492.151,587.853 494.312,583.747 496.473,579.697 498.634,575.7 500.795,571.755 502.956,567.864 505.117,564.024 507.278,560.234 509.439,556.496 511.6,552.806 513.761,549.166 515.922,545.574 518.083,542.029 520.244,538.532 522.405,535.081 524.566,531.675 526.727,528.315 528.888,524.999 531.049,521.728 533.21,518.499 535.371,515.314 537.532,512.17 539.693,509.069 541.854,506.008 544.015,502.988 546.176,500.008 548.337,497.068 550.498,494.166 552.659,491.303 554.82,488.478 556.981,485.69 559.142,482.939 561.303,480.225 563.464,477.547 565.625,474.904 567.786,472.297 569.947,469.724 572.108,467.185 574.269,464.679 576.43,462.207 578.591,459.768 580.752,457.361 582.913,454.986 585.074,452.643 587.235,450.33 589.396,448.048 591.556,445.797 593.717,443.575 595.878,441.383 598.039,439.219 600.2,437.085 602.361,434.979 604.522,432.9 606.683,430.85 608.844,428.826 611.005,426.829 613.166,424.859 615.327,422.915 617.488,420.996 619.649,419.104 621.81,417.236 623.971,415.436 626.132,415.43 628.293,417.882 630.454,422.484 632.615,428.946 634.776,436.996 636.937,446.378 639.098,456.854 641.259,468.204 643.42,480.225 645.581,492.729 647.742,505.548 649.903,518.53 652.064,531.54 654.225,544.463 656.386,557.196 658.547,569.659 660.708,581.785 662.869,593.526 665.03,604.852 667.191,615.749 669.352,626.22 671.513,636.286 673.674,645.986 675.835,655.375 677.996,664.525 680.157,673.527 682.318,682.488 684.479,691.532 686.64,700.698 688.801,709.761 690.962,718.703 693.123,727.527 695.284,736.233 697.445,744.825 699.606,753.302 701.767,761.667 703.927,769.921 706.088,778.066 708.249,786.102 710.41,794.032 712.571,801.857 714.732,809.579 716.893,817.198 719.054,824.716 721.215,832.134 723.376,839.454 725.537,846.678 727.698,853.805 729.859,860.838 732.02,867.777 734.181,874.625 736.342,881.382 738.503,888.049 740.664,894.627 742.825,901.118 744.986,907.524 747.147,913.844 749.308,920.08 751.469,926.234 753.63,932.306 755.791,938.298 757.952,944.21 760.113,950.043 762.274,955.799 764.435,961.479 766.596,967.084 768.757,972.614 770.918,978.072 773.079,983.456 775.24,988.77 777.401,994.013 779.562,999.186 781.723,1004.29 783.884,1009.33 786.045,1014.3 788.206,1019.2 790.367,1024.04 792.528,1028.82 794.689,1033.53 796.85,1038.18 799.011,1042.77 801.172,1047.3 803.333,1051.76 805.494,1056.17 807.655,1060.52 809.816,1064.81 811.977,1069.05 814.138,1073.23 816.298,1077.35 818.459,1081.42 820.62,1085.43 822.781,1089.39 824.942,1093.3 827.103,1097.16 829.264,1100.97 831.425,1104.72 833.586,1107.87 835.747,1109.35 837.908,1109.32 840.069,1107.96 842.23,1105.44 844.391,1101.92 846.552,1097.54 848.713,1092.46 850.874,1086.79 853.035,1080.67 855.196,1074.21 857.357,1067.5 859.518,1060.64 861.679,1053.71 863.84,1046.79 866.001,1039.94 868.162,1033.22 870.323,1026.67 872.484,1020.33 874.645,1014.23 876.806,1008.37 878.967,1002.77 881.128,997.43 883.289,992.331 885.45,987.455 887.611,982.77 889.772,978.235 891.933,973.802 894.094,969.41 896.255,964.99 898.416,960.464 900.577,955.892 902.738,951.381 904.899,946.929 907.06,942.537 909.221,938.203 911.382,933.926 913.543,929.706 915.704,925.542 917.865,921.433 920.026,917.378 922.187,913.378 924.348,909.43 926.509,905.535 928.669,901.691 930.83,897.898 932.991,894.156 935.152,890.463 937.313,886.819 939.474,883.223 941.635,879.675 943.796,876.173 945.957,872.718 948.118,869.309 950.279,865.945 952.44,862.626 954.601,859.35 956.762,856.118 958.923,852.929 961.084,849.782 963.245,846.677 965.406,843.614 967.567,840.591 969.728,837.608 971.889,834.664 974.05,831.76 976.211,828.894 978.372,826.067 980.533,823.277 982.694,820.524 984.855,817.807 987.016,815.127 989.177,812.482 991.338,809.873 993.499,807.298 995.66,804.757 997.821,802.25 999.982,799.776 1002.14,797.335 1004.3,794.926 1006.46,792.55 1008.63,790.204 1010.79,787.89 1012.95,785.607 1015.11,783.354 1017.27,781.13 1019.43,778.936 1021.59,776.771 1023.75,774.635 1025.91,772.527 1028.07,770.447 1030.24,768.394 1032.4,766.369 1034.56,764.37 1036.72,762.398 1038.88,760.452 1041.04,758.532 1043.2,756.637 1045.36,754.768 1047.52,752.923 1049.68,751.102 1051.85,749.306 1054.01,747.534 1056.17,745.788 1058.33,744.315 1060.49,743.235 1062.65,742.507 1064.81,742.088 1066.97,741.942 1069.13,742.032 1071.29,742.323 1073.46,742.784 1075.62,743.384 1077.78,744.097 1079.94,744.896 1082.1,745.758 1084.26,746.663 1086.42,747.59 1088.58,748.524 1090.74,749.448 1092.9,750.352 1095.07,751.224 1097.23,752.056 1099.39,752.842 1101.55,753.578 1103.71,754.262 1105.87,754.895 1108.03,755.479 1110.19,756.018 1112.35,756.52 1114.51,756.993 1116.67,757.449 1118.84,757.901 1121,758.364 1123.16,758.856 1125.32,759.375 1127.48,759.887 1129.64,760.393 1131.8,760.892 1133.96,761.384 1136.12,761.87 1138.28,762.349 1140.45,762.822 1142.61,763.289 1144.77,763.75 1146.93,764.204 1149.09,764.653 1151.25,765.095 1153.41,765.532 1155.57,765.963 1157.73,766.388 1159.89,766.808 1162.06,767.222 1164.22,767.63 1166.38,768.033 1168.54,768.431 1170.7,768.824 1172.86,769.211 1175.02,769.593 1177.18,769.971 1179.34,770.343 1181.5,770.71 1183.67,771.072 1185.83,771.43 1187.99,771.782 1190.15,772.131 1192.31,772.474 1194.47,772.813 1196.63,773.147 1198.79,773.477 1200.95,773.803 1203.11,774.124 1205.28,774.441 1207.44,774.754 1209.6,775.062 1211.76,775.367 1213.92,775.667 1216.08,775.963 1218.24,776.256 1220.4,776.545 1222.56,776.829 1224.72,777.11 1226.88,777.388 1229.05,777.661 1231.21,777.931 1233.37,778.198 1235.53,778.46 1237.69,778.72 1239.85,778.976 1242.01,779.228 1244.17,779.477 1246.33,779.723 1248.49,779.966 1250.66,780.205 1252.82,780.442 1254.98,780.675 1257.14,780.905 1259.3,781.132 1261.46,781.356 1263.62,781.577 1265.78,781.795 1267.94,782.01 1270.1,782.223 1272.27,782.432 1274.43,782.81 1276.59,783.941 1278.75,785.8 1280.91,788.306 1283.07,791.381 1285.23,794.953 1287.39,798.952 1289.55,803.313 1291.71,807.974 1293.88,812.878 1296.04,817.971 1298.2,823.204 1300.36,828.531 1302.52,833.91 1304.68,839.303 1306.84,844.677 1309,850.002 1311.16,855.251 1313.32,860.403 1315.49,865.439 1317.65,870.345 1319.81,875.111 1321.97,879.731 1324.13,884.202 1326.29,888.525 1328.45,892.707 1330.61,896.756 1332.77,900.685 1334.93,904.513 1337.09,908.26 1339.26,911.951 1341.42,915.616 1343.58,919.287 1345.74,922.998 1347.9,926.689 1350.06,930.331 1352.22,933.924 1354.38,937.47 1356.54,940.969 1358.7,944.422 1360.87,947.829 1363.03,951.191 1365.19,954.508 1367.35,957.781 1369.51,961.011 1371.67,964.197 1373.83,967.342 1375.99,970.445 1378.15,973.507 1380.31,976.529 1382.48,979.51 1384.64,982.452 1386.8,985.355 1388.96,988.22 1391.12,991.047 1393.28,993.836 1395.44,996.589 1397.6,999.304 1399.76,1001.98 1401.92,1004.63 1404.09,1007.24 1406.25,1009.81 1408.41,1012.35 1410.57,1014.86 1412.73,1017.33 1414.89,1019.77 1417.05,1022.18 1419.21,1024.56 1421.37,1026.9 1423.53,1029.21 1425.7,1031.5 1427.86,1033.75 1430.02,1035.97 1432.18,1038.16 1434.34,1040.33 1436.5,1042.46 1438.66,1044.57 1440.82,1046.65 1442.98,1048.7 1445.14,1050.72 1447.3,1052.72 1449.47,1054.69 1451.63,1056.64 1453.79,1058.55 1455.95,1060.45 1458.11,1062.32 1460.27,1064.16 1462.43,1065.98 1464.59,1067.77 1466.75,1069.54 1468.91,1071.29 1471.08,1073.02 1473.24,1074.72 1475.4,1076.4 1477.56,1078.05 1479.72,1079.69 1481.88,1081.3 1484.04,1082.89 1486.2,1082.89 1488.36,1080.45 1490.52,1075.88 1492.69,1069.48 1494.85,1061.53 1497.01,1052.29 1499.17,1042 1501.33,1030.89 1503.49,1019.17 1505.65,1007.02 1507.81,994.608 1509.97,982.087 1512.13,969.588 1514.3,957.223 1516.46,945.087 1518.62,933.256 1520.78,921.785 1522.94,910.714 1525.1,900.063 1527.26,889.831 1529.42,880.002 1531.58,870.539 1533.74,861.388 1535.91,852.474 1538.07,843.707 1540.23,834.975 1542.39,826.148 1544.55,817.224 1546.71,808.412 1548.87,799.717 1551.03,791.137 1553.19,782.671 1555.35,774.317 1557.51,766.074 1559.68,757.94 1561.84,749.914 1564,741.995 1566.16,734.18 1568.32,726.469 1570.48,718.86 1572.64,711.352 1574.8,703.944 1576.96,696.634 1579.12,689.42 1581.29,682.302 1583.45,675.279 1585.61,668.348 1587.77,661.51 1589.93,654.762 1592.09,648.104 1594.25,641.534 1596.41,635.051 1598.57,628.654 1600.73,622.342 1602.9,616.113 1605.06,609.968 1607.22,603.904 1609.38,597.92 1611.54,592.016 1613.7,586.19 1615.86,580.441 1618.02,574.768 1620.18,569.171 1622.34,563.648 1624.51,558.198 1626.67,552.821 1628.83,547.514 1630.99,542.278 1633.15,537.112 1635.31,532.014 1637.47,526.983 1639.63,522.019 1641.79,517.121 1643.95,512.288 1646.12,507.519 1648.28,502.813 1650.44,498.169 1652.6,493.587 1654.76,489.066 1656.92,484.604 1659.08,480.202 1661.24,475.858 1663.4,471.572 1665.56,467.343 1667.72,463.169 1669.89,459.051 1672.05,454.988 1674.21,450.979 1676.37,447.022 1678.53,443.119 1680.69,439.267 1682.85,435.466 1685.01,431.715 1687.17,428.014 1689.33,424.362 1691.5,420.759 1693.66,417.203 1695.82,413.695 1697.98,410.233 1700.14,406.817 1702.3,403.446 1704.46,400.533 1706.62,398.605 1708.78,397.562 1710.94,397.302 1713.11,397.732 1715.27,398.76 1717.43,400.303 1719.59,402.279 1721.75,404.616 1723.91,407.243 1726.07,410.096 1728.23,413.116 1730.39,416.25 1732.55,419.449 1734.72,422.67 1736.88,425.873 1739.04,429.027 1741.2,432.103 1743.36,435.078 1745.52,437.935 1747.68,440.661 1749.84,443.25 1752,445.699 1754.16,448.011 1756.33,450.195 1758.49,452.264 1760.65,454.237 1762.81,456.137 1764.97,457.994 1767.13,459.842 1769.29,461.719 1771.45,463.672 1773.61,465.653 1775.77,467.609 1777.93,469.538 1780.1,471.442 1782.26,473.32 1784.42,475.174 1786.58,477.003 1788.74,478.808 1790.9,480.589 1793.06,482.346 1795.22,484.08 1797.38,485.791 1799.54,487.48 1801.71,489.145 1803.87,490.789 1806.03,492.411 1808.19,494.012 1810.35,495.591 1812.51,497.15 1814.67,498.687 1816.83,500.205 1818.99,501.702 1821.15,503.179 1823.32,504.637 1825.48,506.076 1827.64,507.495 1829.8,508.896 1831.96,510.278 1834.12,511.641 1836.28,512.987 1838.44,514.315 1840.6,515.625 1842.76,516.918 1844.93,518.193 1847.09,519.452 1849.25,520.694 1851.41,521.92 1853.57,523.129 1855.73,524.322 1857.89,525.5 1860.05,526.662 1862.21,527.808 1864.37,528.94 1866.54,530.056 1868.7,531.157 1870.86,532.244 1873.02,533.317 1875.18,534.375 1877.34,535.419 1879.5,536.449 1881.66,537.466 1883.82,538.469 1885.98,539.459 1888.15,540.436 1890.31,541.4 1892.47,542.351 1894.63,543.29 1896.79,544.216 1898.95,545.129 1901.11,546.031 1903.27,546.921 1905.43,547.799 1907.59,548.665 1909.75,549.52 1911.92,550.363 1914.08,551.195 1916.24,552.016 1918.4,552.807 1920.56,552.618 1922.72,551.082 1924.88,548.395 1927.04,544.743 1929.2,540.297 1931.36,535.216 1933.53,529.644 1935.69,523.712 1937.85,517.54 1940.01,511.233 1942.17,504.882 1944.33,498.566 1946.49,492.35 1948.65,486.287 1950.81,480.415 1952.97,474.759 1955.14,469.333 1957.3,464.134 1959.46,459.15 1961.62,454.351 1963.78,449.698 1965.94,445.137 1968.1,440.599 1970.26,436.005 1972.42,431.368 1974.58,426.791 1976.75,422.276 1978.91,417.82 1981.07,413.423 1983.23,409.084 1985.39,404.803 1987.55,400.579 1989.71,396.411 1991.87,392.298 1994.03,388.24 1996.19,384.235 1998.36,380.283 2000.52,376.384 2002.68,372.537 2004.84,368.74 2007,364.994 2009.16,361.297 2011.32,357.65 2013.48,354.05 2015.64,350.499 2017.8,346.994 2019.96,343.536 2022.13,340.124 2024.29,336.757 2026.45,333.435 2028.61,330.157 2030.77,326.922 2032.93,323.73 2035.09,320.581 2037.25,317.473 2039.41,314.407 2041.57,311.381 2043.74,308.395 2045.9,305.449 2048.06,302.543 2050.22,299.674 2052.38,296.844 2054.54,294.051 2056.7,291.296 2058.86,288.576 2061.02,285.893 2063.18,283.246 2065.35,280.633 2067.51,278.056 2069.67,275.512 2071.83,273.002 2073.99,270.525 2076.15,268.082 2078.31,265.67 2080.47,263.29 2082.63,260.942 2084.79,258.626 2086.96,256.339 2089.12,254.083 2091.28,251.857 2093.44,249.661 2095.6,247.493 2097.76,245.355 2099.92,243.245 2102.08,241.162 2104.24,239.108 2106.4,237.08 2108.57,235.08 2110.73,233.106 2112.89,231.158 2115.05,229.236 2117.21,227.339 2119.37,225.468 2121.53,223.621 2123.69,221.799 2125.85,220.001 2128.01,218.227 2130.17,216.476 2132.34,214.749 2134.5,213.045 2136.66,211.663 2138.82,211.651 2140.98,212.963 2143.14,215.454 2145.3,218.984 2147.46,223.421 2149.62,228.64 2151.78,234.524 2153.95,240.963 2156.11,247.852 2158.27,255.096 2160.43,262.606 2162.59,270.3 2164.75,278.103 2166.91,285.948 2169.07,293.773 2171.23,301.527 2173.39,309.163 2175.56,316.641 2177.72,323.93 2179.88,331.006 2182.04,337.851 2184.2,344.454 2186.36,350.812 2188.52,356.93 2190.68,362.819 2192.84,368.496 2195,373.987 2197.17,379.325 2199.33,384.549 2201.49,389.707 2203.65,394.852 2205.81,400.045 2207.97,405.317 2210.13,410.539 2212.29,415.691 2214.45,420.775 2216.61,425.791 2218.78,430.741 2220.94,435.626 2223.1,440.445 2225.26,445.201 2227.42,449.893 2229.58,454.524 2231.74,459.093 2233.9,463.601 2236.06,468.05 2238.22,472.44 2240.38,476.771 2242.55,481.045 2244.71,485.263 2246.87,489.424 2249.03,493.531 2251.19,497.583 2253.35,501.582 2255.51,505.528 2257.67,509.421 2259.83,513.263 2261.99,517.054 2264.16,520.795 2266.32,524.486 2268.48,528.128 2270.64,531.722 2272.8,535.268 2274.96,538.767 2277.12,542.22 2279.28,545.627 2281.44,548.988 2283.6,552.305 2285.77,555.578 2287.93,558.807 2290.09,561.993 2292.25,565.137 2294.41,568.239 2296.57,571.3 2298.73,574.321 2300.89,577.301 2303.05,580.242 2305.21,583.144 2307.38,586.007 2309.54,588.832 2311.7,591.62 2313.86,594.371 2316.02,597.085 2318.18,599.763 2320.34,602.406 2322.5,605.014 2324.66,607.587 2326.82,610.126 2328.99,612.632 2331.15,615.104 2333.31,617.544 2335.47,619.951 2337.63,622.327 2339.79,624.671 2341.95,626.984 2344.11,629.267 2346.27,631.519 2348.43,633.742 2350.59,635.935 2352.76,638.098 "/>
<polyline clip-path="url(#clip371)" style="stroke:#e26f46; stroke-linecap:round; stroke-linejoin:round; stroke-width:4; stroke-opacity:1; fill:none" points="193.936,823.521 196.097,823.521 198.258,823.521 200.419,823.521 202.58,823.521 204.741,823.521 206.902,823.521 209.063,823.521 211.224,823.521 213.385,823.521 215.546,823.521 217.707,823.521 219.868,823.521 222.029,823.521 224.19,823.521 226.351,823.521 228.512,823.521 230.673,823.521 232.834,823.521 234.995,823.521 237.156,823.521 239.317,823.521 241.478,823.521 243.639,823.521 245.8,823.521 247.961,823.521 250.122,823.521 252.282,823.521 254.443,823.521 256.604,823.521 258.765,823.521 260.926,823.521 263.087,823.521 265.248,823.521 267.409,823.521 269.57,823.521 271.731,823.521 273.892,823.521 276.053,823.521 278.214,823.521 280.375,823.521 282.536,823.521 284.697,823.521 286.858,823.521 289.019,823.521 291.18,823.521 293.341,823.521 295.502,823.521 297.663,823.521 299.824,823.521 301.985,823.521 304.146,823.521 306.307,823.521 308.468,823.521 310.629,823.521 312.79,823.521 314.951,823.521 317.112,823.521 319.273,823.521 321.434,823.521 323.595,823.521 325.756,823.521 327.917,823.521 330.078,823.521 332.239,823.521 334.4,823.521 336.561,823.521 338.722,823.521 340.883,823.521 343.044,823.521 345.205,823.521 347.366,823.521 349.527,823.521 351.688,823.521 353.849,823.521 356.01,823.521 358.171,823.521 360.332,823.521 362.493,823.521 364.653,823.521 366.814,823.521 368.975,823.521 371.136,823.521 373.297,823.521 375.458,823.521 377.619,823.521 379.78,823.521 381.941,823.521 384.102,823.521 386.263,823.521 388.424,823.521 390.585,823.521 392.746,823.521 394.907,823.521 397.068,823.521 399.229,823.521 401.39,823.521 403.551,823.521 405.712,823.521 407.873,823.521 410.034,278.219 412.195,278.219 414.356,278.219 416.517,278.219 418.678,278.219 420.839,278.219 423,278.219 425.161,278.219 427.322,278.219 429.483,278.219 431.644,278.219 433.805,278.219 435.966,278.219 438.127,278.219 440.288,278.219 442.449,278.219 444.61,278.219 446.771,278.219 448.932,278.219 451.093,278.219 453.254,278.219 455.415,278.219 457.576,278.219 459.737,278.219 461.898,278.219 464.059,278.219 466.22,278.219 468.381,278.219 470.542,278.219 472.703,278.219 474.864,278.219 477.024,278.219 479.185,278.219 481.346,278.219 483.507,278.219 485.668,278.219 487.829,278.219 489.99,278.219 492.151,278.219 494.312,278.219 496.473,278.219 498.634,278.219 500.795,278.219 502.956,278.219 505.117,278.219 507.278,278.219 509.439,278.219 511.6,278.219 513.761,278.219 515.922,278.219 518.083,278.219 520.244,278.219 522.405,278.219 524.566,278.219 526.727,278.219 528.888,278.219 531.049,278.219 533.21,278.219 535.371,278.219 537.532,278.219 539.693,278.219 541.854,278.219 544.015,278.219 546.176,278.219 548.337,278.219 550.498,278.219 552.659,278.219 554.82,278.219 556.981,278.219 559.142,278.219 561.303,278.219 563.464,278.219 565.625,278.219 567.786,278.219 569.947,278.219 572.108,278.219 574.269,278.219 576.43,278.219 578.591,278.219 580.752,278.219 582.913,278.219 585.074,278.219 587.235,278.219 589.396,278.219 591.556,278.219 593.717,278.219 595.878,278.219 598.039,278.219 600.2,278.219 602.361,278.219 604.522,278.219 606.683,278.219 608.844,278.219 611.005,278.219 613.166,278.219 615.327,278.219 617.488,278.219 619.649,278.219 621.81,278.219 623.971,278.219 626.132,1384.24 628.293,1384.24 630.454,1384.24 632.615,1384.24 634.776,1384.24 636.937,1384.24 639.098,1384.24 641.259,1384.24 643.42,1384.24 645.581,1384.24 647.742,1384.24 649.903,1384.24 652.064,1384.24 654.225,1384.24 656.386,1384.24 658.547,1384.24 660.708,1384.24 662.869,1384.24 665.03,1384.24 667.191,1384.24 669.352,1384.24 671.513,1384.24 673.674,1384.24 675.835,1384.24 677.996,1384.24 680.157,1384.24 682.318,1384.24 684.479,1384.24 686.64,1384.24 688.801,1384.24 690.962,1384.24 693.123,1384.24 695.284,1384.24 697.445,1384.24 699.606,1384.24 701.767,1384.24 703.927,1384.24 706.088,1384.24 708.249,1384.24 710.41,1384.24 712.571,1384.24 714.732,1384.24 716.893,1384.24 719.054,1384.24 721.215,1384.24 723.376,1384.24 725.537,1384.24 727.698,1384.24 729.859,1384.24 732.02,1384.24 734.181,1384.24 736.342,1384.24 738.503,1384.24 740.664,1384.24 742.825,1384.24 744.986,1384.24 747.147,1384.24 749.308,1384.24 751.469,1384.24 753.63,1384.24 755.791,1384.24 757.952,1384.24 760.113,1384.24 762.274,1384.24 764.435,1384.24 766.596,1384.24 768.757,1384.24 770.918,1384.24 773.079,1384.24 775.24,1384.24 777.401,1384.24 779.562,1384.24 781.723,1384.24 783.884,1384.24 786.045,1384.24 788.206,1384.24 790.367,1384.24 792.528,1384.24 794.689,1384.24 796.85,1384.24 799.011,1384.24 801.172,1384.24 803.333,1384.24 805.494,1384.24 807.655,1384.24 809.816,1384.24 811.977,1384.24 814.138,1384.24 816.298,1384.24 818.459,1384.24 820.62,1384.24 822.781,1384.24 824.942,1384.24 827.103,1384.24 829.264,1384.24 831.425,1384.24 833.586,1384.24 835.747,1384.24 837.908,1384.24 840.069,1384.24 842.23,615.621 844.391,615.621 846.552,615.621 848.713,615.621 850.874,615.621 853.035,615.621 855.196,615.621 857.357,615.621 859.518,615.621 861.679,615.621 863.84,615.621 866.001,615.621 868.162,615.621 870.323,615.621 872.484,615.621 874.645,615.621 876.806,615.621 878.967,615.621 881.128,615.621 883.289,615.621 885.45,615.621 887.611,615.621 889.772,615.621 891.933,615.621 894.094,615.621 896.255,615.621 898.416,615.621 900.577,615.621 902.738,615.621 904.899,615.621 907.06,615.621 909.221,615.621 911.382,615.621 913.543,615.621 915.704,615.621 917.865,615.621 920.026,615.621 922.187,615.621 924.348,615.621 926.509,615.621 928.669,615.621 930.83,615.621 932.991,615.621 935.152,615.621 937.313,615.621 939.474,615.621 941.635,615.621 943.796,615.621 945.957,615.621 948.118,615.621 950.279,615.621 952.44,615.621 954.601,615.621 956.762,615.621 958.923,615.621 961.084,615.621 963.245,615.621 965.406,615.621 967.567,615.621 969.728,615.621 971.889,615.621 974.05,615.621 976.211,615.621 978.372,615.621 980.533,615.621 982.694,615.621 984.855,615.621 987.016,615.621 989.177,615.621 991.338,615.621 993.499,615.621 995.66,615.621 997.821,615.621 999.982,615.621 1002.14,615.621 1004.3,615.621 1006.46,615.621 1008.63,615.621 1010.79,615.621 1012.95,615.621 1015.11,615.621 1017.27,615.621 1019.43,615.621 1021.59,615.621 1023.75,615.621 1025.91,615.621 1028.07,615.621 1030.24,615.621 1032.4,615.621 1034.56,615.621 1036.72,615.621 1038.88,615.621 1041.04,615.621 1043.2,615.621 1045.36,615.621 1047.52,615.621 1049.68,615.621 1051.85,615.621 1054.01,615.621 1056.17,615.621 1058.33,798.031 1060.49,798.031 1062.65,798.031 1064.81,798.031 1066.97,798.031 1069.13,798.031 1071.29,798.031 1073.46,798.031 1075.62,798.031 1077.78,798.031 1079.94,798.031 1082.1,798.031 1084.26,798.031 1086.42,798.031 1088.58,798.031 1090.74,798.031 1092.9,798.031 1095.07,798.031 1097.23,798.031 1099.39,798.031 1101.55,798.031 1103.71,798.031 1105.87,798.031 1108.03,798.031 1110.19,798.031 1112.35,798.031 1114.51,798.031 1116.67,798.031 1118.84,798.031 1121,798.031 1123.16,798.031 1125.32,798.031 1127.48,798.031 1129.64,798.031 1131.8,798.031 1133.96,798.031 1136.12,798.031 1138.28,798.031 1140.45,798.031 1142.61,798.031 1144.77,798.031 1146.93,798.031 1149.09,798.031 1151.25,798.031 1153.41,798.031 1155.57,798.031 1157.73,798.031 1159.89,798.031 1162.06,798.031 1164.22,798.031 1166.38,798.031 1168.54,798.031 1170.7,798.031 1172.86,798.031 1175.02,798.031 1177.18,798.031 1179.34,798.031 1181.5,798.031 1183.67,798.031 1185.83,798.031 1187.99,798.031 1190.15,798.031 1192.31,798.031 1194.47,798.031 1196.63,798.031 1198.79,798.031 1200.95,798.031 1203.11,798.031 1205.28,798.031 1207.44,798.031 1209.6,798.031 1211.76,798.031 1213.92,798.031 1216.08,798.031 1218.24,798.031 1220.4,798.031 1222.56,798.031 1224.72,798.031 1226.88,798.031 1229.05,798.031 1231.21,798.031 1233.37,798.031 1235.53,798.031 1237.69,798.031 1239.85,798.031 1242.01,798.031 1244.17,798.031 1246.33,798.031 1248.49,798.031 1250.66,798.031 1252.82,798.031 1254.98,798.031 1257.14,798.031 1259.3,798.031 1261.46,798.031 1263.62,798.031 1265.78,798.031 1267.94,798.031 1270.1,798.031 1272.27,798.031 1274.43,1201.39 1276.59,1201.39 1278.75,1201.39 1280.91,1201.39 1283.07,1201.39 1285.23,1201.39 1287.39,1201.39 1289.55,1201.39 1291.71,1201.39 1293.88,1201.39 1296.04,1201.39 1298.2,1201.39 1300.36,1201.39 1302.52,1201.39 1304.68,1201.39 1306.84,1201.39 1309,1201.39 1311.16,1201.39 1313.32,1201.39 1315.49,1201.39 1317.65,1201.39 1319.81,1201.39 1321.97,1201.39 1324.13,1201.39 1326.29,1201.39 1328.45,1201.39 1330.61,1201.39 1332.77,1201.39 1334.93,1201.39 1337.09,1201.39 1339.26,1201.39 1341.42,1201.39 1343.58,1201.39 1345.74,1201.39 1347.9,1201.39 1350.06,1201.39 1352.22,1201.39 1354.38,1201.39 1356.54,1201.39 1358.7,1201.39 1360.87,1201.39 1363.03,1201.39 1365.19,1201.39 1367.35,1201.39 1369.51,1201.39 1371.67,1201.39 1373.83,1201.39 1375.99,1201.39 1378.15,1201.39 1380.31,1201.39 1382.48,1201.39 1384.64,1201.39 1386.8,1201.39 1388.96,1201.39 1391.12,1201.39 1393.28,1201.39 1395.44,1201.39 1397.6,1201.39 1399.76,1201.39 1401.92,1201.39 1404.09,1201.39 1406.25,1201.39 1408.41,1201.39 1410.57,1201.39 1412.73,1201.39 1414.89,1201.39 1417.05,1201.39 1419.21,1201.39 1421.37,1201.39 1423.53,1201.39 1425.7,1201.39 1427.86,1201.39 1430.02,1201.39 1432.18,1201.39 1434.34,1201.39 1436.5,1201.39 1438.66,1201.39 1440.82,1201.39 1442.98,1201.39 1445.14,1201.39 1447.3,1201.39 1449.47,1201.39 1451.63,1201.39 1453.79,1201.39 1455.95,1201.39 1458.11,1201.39 1460.27,1201.39 1462.43,1201.39 1464.59,1201.39 1466.75,1201.39 1468.91,1201.39 1471.08,1201.39 1473.24,1201.39 1475.4,1201.39 1477.56,1201.39 1479.72,1201.39 1481.88,1201.39 1484.04,1201.39 1486.2,1201.39 1488.36,1201.39 1490.52,152.569 1492.69,152.569 1494.85,152.569 1497.01,152.569 1499.17,152.569 1501.33,152.569 1503.49,152.569 1505.65,152.569 1507.81,152.569 1509.97,152.569 1512.13,152.569 1514.3,152.569 1516.46,152.569 1518.62,152.569 1520.78,152.569 1522.94,152.569 1525.1,152.569 1527.26,152.569 1529.42,152.569 1531.58,152.569 1533.74,152.569 1535.91,152.569 1538.07,152.569 1540.23,152.569 1542.39,152.569 1544.55,152.569 1546.71,152.569 1548.87,152.569 1551.03,152.569 1553.19,152.569 1555.35,152.569 1557.51,152.569 1559.68,152.569 1561.84,152.569 1564,152.569 1566.16,152.569 1568.32,152.569 1570.48,152.569 1572.64,152.569 1574.8,152.569 1576.96,152.569 1579.12,152.569 1581.29,152.569 1583.45,152.569 1585.61,152.569 1587.77,152.569 1589.93,152.569 1592.09,152.569 1594.25,152.569 1596.41,152.569 1598.57,152.569 1600.73,152.569 1602.9,152.569 1605.06,152.569 1607.22,152.569 1609.38,152.569 1611.54,152.569 1613.7,152.569 1615.86,152.569 1618.02,152.569 1620.18,152.569 1622.34,152.569 1624.51,152.569 1626.67,152.569 1628.83,152.569 1630.99,152.569 1633.15,152.569 1635.31,152.569 1637.47,152.569 1639.63,152.569 1641.79,152.569 1643.95,152.569 1646.12,152.569 1648.28,152.569 1650.44,152.569 1652.6,152.569 1654.76,152.569 1656.92,152.569 1659.08,152.569 1661.24,152.569 1663.4,152.569 1665.56,152.569 1667.72,152.569 1669.89,152.569 1672.05,152.569 1674.21,152.569 1676.37,152.569 1678.53,152.569 1680.69,152.569 1682.85,152.569 1685.01,152.569 1687.17,152.569 1689.33,152.569 1691.5,152.569 1693.66,152.569 1695.82,152.569 1697.98,152.569 1700.14,152.569 1702.3,152.569 1704.46,152.569 1706.62,613.136 1708.78,613.136 1710.94,613.136 1713.11,613.136 1715.27,613.136 1717.43,613.136 1719.59,613.136 1721.75,613.136 1723.91,613.136 1726.07,613.136 1728.23,613.136 1730.39,613.136 1732.55,613.136 1734.72,613.136 1736.88,613.136 1739.04,613.136 1741.2,613.136 1743.36,613.136 1745.52,613.136 1747.68,613.136 1749.84,613.136 1752,613.136 1754.16,613.136 1756.33,613.136 1758.49,613.136 1760.65,613.136 1762.81,613.136 1764.97,613.136 1767.13,613.136 1769.29,613.136 1771.45,613.136 1773.61,613.136 1775.77,613.136 1777.93,613.136 1780.1,613.136 1782.26,613.136 1784.42,613.136 1786.58,613.136 1788.74,613.136 1790.9,613.136 1793.06,613.136 1795.22,613.136 1797.38,613.136 1799.54,613.136 1801.71,613.136 1803.87,613.136 1806.03,613.136 1808.19,613.136 1810.35,613.136 1812.51,613.136 1814.67,613.136 1816.83,613.136 1818.99,613.136 1821.15,613.136 1823.32,613.136 1825.48,613.136 1827.64,613.136 1829.8,613.136 1831.96,613.136 1834.12,613.136 1836.28,613.136 1838.44,613.136 1840.6,613.136 1842.76,613.136 1844.93,613.136 1847.09,613.136 1849.25,613.136 1851.41,613.136 1853.57,613.136 1855.73,613.136 1857.89,613.136 1860.05,613.136 1862.21,613.136 1864.37,613.136 1866.54,613.136 1868.7,613.136 1870.86,613.136 1873.02,613.136 1875.18,613.136 1877.34,613.136 1879.5,613.136 1881.66,613.136 1883.82,613.136 1885.98,613.136 1888.15,613.136 1890.31,613.136 1892.47,613.136 1894.63,613.136 1896.79,613.136 1898.95,613.136 1901.11,613.136 1903.27,613.136 1905.43,613.136 1907.59,613.136 1909.75,613.136 1911.92,613.136 1914.08,613.136 1916.24,613.136 1918.4,613.136 1920.56,613.136 1922.72,86.1857 1924.88,86.1857 1927.04,86.1857 1929.2,86.1857 1931.36,86.1857 1933.53,86.1857 1935.69,86.1857 1937.85,86.1857 1940.01,86.1857 1942.17,86.1857 1944.33,86.1857 1946.49,86.1857 1948.65,86.1857 1950.81,86.1857 1952.97,86.1857 1955.14,86.1857 1957.3,86.1857 1959.46,86.1857 1961.62,86.1857 1963.78,86.1857 1965.94,86.1857 1968.1,86.1857 1970.26,86.1857 1972.42,86.1857 1974.58,86.1857 1976.75,86.1857 1978.91,86.1857 1981.07,86.1857 1983.23,86.1857 1985.39,86.1857 1987.55,86.1857 1989.71,86.1857 1991.87,86.1857 1994.03,86.1857 1996.19,86.1857 1998.36,86.1857 2000.52,86.1857 2002.68,86.1857 2004.84,86.1857 2007,86.1857 2009.16,86.1857 2011.32,86.1857 2013.48,86.1857 2015.64,86.1857 2017.8,86.1857 2019.96,86.1857 2022.13,86.1857 2024.29,86.1857 2026.45,86.1857 2028.61,86.1857 2030.77,86.1857 2032.93,86.1857 2035.09,86.1857 2037.25,86.1857 2039.41,86.1857 2041.57,86.1857 2043.74,86.1857 2045.9,86.1857 2048.06,86.1857 2050.22,86.1857 2052.38,86.1857 2054.54,86.1857 2056.7,86.1857 2058.86,86.1857 2061.02,86.1857 2063.18,86.1857 2065.35,86.1857 2067.51,86.1857 2069.67,86.1857 2071.83,86.1857 2073.99,86.1857 2076.15,86.1857 2078.31,86.1857 2080.47,86.1857 2082.63,86.1857 2084.79,86.1857 2086.96,86.1857 2089.12,86.1857 2091.28,86.1857 2093.44,86.1857 2095.6,86.1857 2097.76,86.1857 2099.92,86.1857 2102.08,86.1857 2104.24,86.1857 2106.4,86.1857 2108.57,86.1857 2110.73,86.1857 2112.89,86.1857 2115.05,86.1857 2117.21,86.1857 2119.37,86.1857 2121.53,86.1857 2123.69,86.1857 2125.85,86.1857 2128.01,86.1857 2130.17,86.1857 2132.34,86.1857 2134.5,86.1857 2136.66,86.1857 2138.82,799.146 2140.98,799.146 2143.14,799.146 2145.3,799.146 2147.46,799.146 2149.62,799.146 2151.78,799.146 2153.95,799.146 2156.11,799.146 2158.27,799.146 2160.43,799.146 2162.59,799.146 2164.75,799.146 2166.91,799.146 2169.07,799.146 2171.23,799.146 2173.39,799.146 2175.56,799.146 2177.72,799.146 2179.88,799.146 2182.04,799.146 2184.2,799.146 2186.36,799.146 2188.52,799.146 2190.68,799.146 2192.84,799.146 2195,799.146 2197.17,799.146 2199.33,799.146 2201.49,799.146 2203.65,799.146 2205.81,799.146 2207.97,799.146 2210.13,799.146 2212.29,799.146 2214.45,799.146 2216.61,799.146 2218.78,799.146 2220.94,799.146 2223.1,799.146 2225.26,799.146 2227.42,799.146 2229.58,799.146 2231.74,799.146 2233.9,799.146 2236.06,799.146 2238.22,799.146 2240.38,799.146 2242.55,799.146 2244.71,799.146 2246.87,799.146 2249.03,799.146 2251.19,799.146 2253.35,799.146 2255.51,799.146 2257.67,799.146 2259.83,799.146 2261.99,799.146 2264.16,799.146 2266.32,799.146 2268.48,799.146 2270.64,799.146 2272.8,799.146 2274.96,799.146 2277.12,799.146 2279.28,799.146 2281.44,799.146 2283.6,799.146 2285.77,799.146 2287.93,799.146 2290.09,799.146 2292.25,799.146 2294.41,799.146 2296.57,799.146 2298.73,799.146 2300.89,799.146 2303.05,799.146 2305.21,799.146 2307.38,799.146 2309.54,799.146 2311.7,799.146 2313.86,799.146 2316.02,799.146 2318.18,799.146 2320.34,799.146 2322.5,799.146 2324.66,799.146 2326.82,799.146 2328.99,799.146 2331.15,799.146 2333.31,799.146 2335.47,799.146 2337.63,799.146 2339.79,799.146 2341.95,799.146 2344.11,799.146 2346.27,799.146 2348.43,799.146 2350.59,799.146 2352.76,799.146 "/>
<path clip-path="url(#clip370)" d="M2039.77 1377.32 L2280.8 1377.32 L2280.8 1221.8 L2039.77 1221.8  Z" fill="#ffffff" fill-rule="evenodd" fill-opacity="1"/>
<polyline clip-path="url(#clip370)" style="stroke:#000000; stroke-linecap:round; stroke-linejoin:round; stroke-width:4; stroke-opacity:1; fill:none" points="2039.77,1377.32 2280.8,1377.32 2280.8,1221.8 2039.77,1221.8 2039.77,1377.32 "/>
<polyline clip-path="url(#clip370)" style="stroke:#009af9; stroke-linecap:round; stroke-linejoin:round; stroke-width:4; stroke-opacity:1; fill:none" points="2063.76,1273.64 2207.68,1273.64 "/>
<path clip-path="url(#clip370)" d="M2256.32 1264.99 L2246.95 1277.61 L2256.81 1290.92 L2251.79 1290.92 L2244.24 1280.73 L2236.69 1290.92 L2231.67 1290.92 L2241.74 1277.35 L2232.53 1264.99 L2237.55 1264.99 L2244.42 1274.23 L2251.3 1264.99 L2256.32 1264.99 Z" fill="#000000" fill-rule="nonzero" fill-opacity="1" /><polyline clip-path="url(#clip370)" style="stroke:#e26f46; stroke-linecap:round; stroke-linejoin:round; stroke-width:4; stroke-opacity:1; fill:none" points="2063.76,1325.48 2207.68,1325.48 "/>
<path clip-path="url(#clip370)" d="M2248.17 1306.74 L2248.17 1310.28 L2244.1 1310.28 Q2241.81 1310.28 2240.91 1311.2 Q2240.03 1312.13 2240.03 1314.54 L2240.03 1316.83 L2247.04 1316.83 L2247.04 1320.14 L2240.03 1320.14 L2240.03 1342.76 L2235.74 1342.76 L2235.74 1320.14 L2231.67 1320.14 L2231.67 1316.83 L2235.74 1316.83 L2235.74 1315.02 Q2235.74 1310.7 2237.76 1308.73 Q2239.77 1306.74 2244.15 1306.74 L2248.17 1306.74 Z" fill="#000000" fill-rule="nonzero" fill-opacity="1" /></svg>
