<?xml version="1.0" encoding="utf-8"?>
<svg xmlns="http://www.w3.org/2000/svg" xmlns:xlink="http://www.w3.org/1999/xlink" width="600" height="400" viewBox="0 0 2400 1600">
<defs>
  <clipPath id="clip630">
    <rect x="0" y="0" width="2400" height="1600"/>
  </clipPath>
</defs>
<path clip-path="url(#clip630)" d="M0 1600 L2400 1600 L2400 0 L0 0  Z" fill="#ffffff" fill-rule="evenodd" fill-opacity="1"/>
<defs>
  <clipPath id="clip631">
    <rect x="112" y="47" width="2242" height="1440"/>
  </clipPath>
</defs>
<path clip-path="url(#clip631)" d="M-521.752 2360.17 L-521.752 2103.48 L-205.035 1975.13 L343.534 2049.23 L343.534 2305.92 L26.8173 2434.27 L-521.752 2360.17  Z" fill="#ffffff" fill-rule="evenodd" fill-opacity="1"/>
<polyline clip-path="url(#clip631)" style="stroke:#000000; stroke-linecap:round; stroke-linejoin:round; stroke-width:2; stroke-opacity:0.1; fill:none" points="737.43,1223.61 1152.89,863.809 1152.89,144.207 "/>
<polyline clip-path="url(#clip631)" style="stroke:#000000; stroke-linecap:round; stroke-linejoin:round; stroke-width:2; stroke-opacity:0.1; fill:none" points="874.572,1263.2 1290.03,903.398 1290.03,183.796 "/>
<polyline clip-path="url(#clip631)" style="stroke:#000000; stroke-linecap:round; stroke-linejoin:round; stroke-width:2; stroke-opacity:0.1; fill:none" points="1011.71,1302.79 1427.18,942.988 1427.18,223.386 "/>
<polyline clip-path="url(#clip631)" style="stroke:#000000; stroke-linecap:round; stroke-linejoin:round; stroke-width:2; stroke-opacity:0.1; fill:none" points="1148.86,1342.38 1564.32,982.577 1564.32,262.975 "/>
<polyline clip-path="url(#clip631)" style="stroke:#000000; stroke-linecap:round; stroke-linejoin:round; stroke-width:2; stroke-opacity:0.1; fill:none" points="1286,1381.97 1701.46,1022.17 1701.46,302.565 "/>
<polyline clip-path="url(#clip631)" style="stroke:#000000; stroke-linecap:round; stroke-linejoin:round; stroke-width:2; stroke-opacity:0.1; fill:none" points="1399.5,1397.46 679.894,1189.73 679.894,470.125 "/>
<polyline clip-path="url(#clip631)" style="stroke:#000000; stroke-linecap:round; stroke-linejoin:round; stroke-width:2; stroke-opacity:0.1; fill:none" points="1473.6,1333.29 753.994,1125.55 753.994,405.952 "/>
<polyline clip-path="url(#clip631)" style="stroke:#000000; stroke-linecap:round; stroke-linejoin:round; stroke-width:2; stroke-opacity:0.1; fill:none" points="1547.7,1269.11 828.094,1061.38 828.094,341.78 "/>
<polyline clip-path="url(#clip631)" style="stroke:#000000; stroke-linecap:round; stroke-linejoin:round; stroke-width:2; stroke-opacity:0.1; fill:none" points="1621.8,1204.94 902.194,997.209 902.194,277.607 "/>
<polyline clip-path="url(#clip631)" style="stroke:#000000; stroke-linecap:round; stroke-linejoin:round; stroke-width:2; stroke-opacity:0.1; fill:none" points="1695.9,1140.77 976.294,933.036 976.294,213.434 "/>
<polyline clip-path="url(#clip631)" style="stroke:#000000; stroke-linecap:round; stroke-linejoin:round; stroke-width:2; stroke-opacity:0.1; fill:none" points="1770,1076.59 1050.39,868.864 1050.39,149.262 "/>
<polyline clip-path="url(#clip631)" style="stroke:#000000; stroke-linecap:round; stroke-linejoin:round; stroke-width:2; stroke-opacity:0.1; fill:none" points="664.934,1153.65 1080.4,793.85 1800,1001.58 "/>
<polyline clip-path="url(#clip631)" style="stroke:#000000; stroke-linecap:round; stroke-linejoin:round; stroke-width:2; stroke-opacity:0.1; fill:none" points="664.934,1046.46 1080.4,686.661 1800,894.392 "/>
<polyline clip-path="url(#clip631)" style="stroke:#000000; stroke-linecap:round; stroke-linejoin:round; stroke-width:2; stroke-opacity:0.1; fill:none" points="664.934,939.273 1080.4,579.472 1800,787.203 "/>
<polyline clip-path="url(#clip631)" style="stroke:#000000; stroke-linecap:round; stroke-linejoin:round; stroke-width:2; stroke-opacity:0.1; fill:none" points="664.934,832.083 1080.4,472.282 1800,680.013 "/>
<polyline clip-path="url(#clip631)" style="stroke:#000000; stroke-linecap:round; stroke-linejoin:round; stroke-width:2; stroke-opacity:0.1; fill:none" points="664.934,724.894 1080.4,365.093 1800,572.824 "/>
<polyline clip-path="url(#clip631)" style="stroke:#000000; stroke-linecap:round; stroke-linejoin:round; stroke-width:2; stroke-opacity:0.1; fill:none" points="664.934,617.704 1080.4,257.903 1800,465.634 "/>
<polyline clip-path="url(#clip631)" style="stroke:#000000; stroke-linecap:round; stroke-linejoin:round; stroke-width:2; stroke-opacity:0.1; fill:none" points="664.934,510.515 1080.4,150.714 1800,358.445 "/>
<polyline clip-path="url(#clip630)" style="stroke:#000000; stroke-linecap:round; stroke-linejoin:round; stroke-width:4; stroke-opacity:1; fill:none" points="664.934,1202.68 1384.54,1410.41 "/>
<polyline clip-path="url(#clip630)" style="stroke:#000000; stroke-linecap:round; stroke-linejoin:round; stroke-width:4; stroke-opacity:1; fill:none" points="737.43,1223.61 742.416,1219.29 "/>
<polyline clip-path="url(#clip630)" style="stroke:#000000; stroke-linecap:round; stroke-linejoin:round; stroke-width:4; stroke-opacity:1; fill:none" points="874.572,1263.2 879.558,1258.88 "/>
<polyline clip-path="url(#clip630)" style="stroke:#000000; stroke-linecap:round; stroke-linejoin:round; stroke-width:4; stroke-opacity:1; fill:none" points="1011.71,1302.79 1016.7,1298.47 "/>
<polyline clip-path="url(#clip630)" style="stroke:#000000; stroke-linecap:round; stroke-linejoin:round; stroke-width:4; stroke-opacity:1; fill:none" points="1148.86,1342.38 1153.84,1338.06 "/>
<polyline clip-path="url(#clip630)" style="stroke:#000000; stroke-linecap:round; stroke-linejoin:round; stroke-width:4; stroke-opacity:1; fill:none" points="1286,1381.97 1290.98,1377.65 "/>
<path clip-path="url(#clip630)" d="M677.395 1237.95 Q673.783 1237.95 671.955 1241.51 Q670.149 1245.06 670.149 1252.19 Q670.149 1259.29 671.955 1262.86 Q673.783 1266.4 677.395 1266.4 Q681.029 1266.4 682.834 1262.86 Q684.663 1259.29 684.663 1252.19 Q684.663 1245.06 682.834 1241.51 Q681.029 1237.95 677.395 1237.95 M677.395 1234.25 Q683.205 1234.25 686.26 1238.85 Q689.339 1243.44 689.339 1252.19 Q689.339 1260.91 686.26 1265.52 Q683.205 1270.1 677.395 1270.1 Q671.584 1270.1 668.506 1265.52 Q665.45 1260.91 665.45 1252.19 Q665.45 1243.44 668.506 1238.85 Q671.584 1234.25 677.395 1234.25 Z" fill="#000000" fill-rule="nonzero" fill-opacity="1" /><path clip-path="url(#clip630)" d="M697.556 1263.55 L702.441 1263.55 L702.441 1269.43 L697.556 1269.43 L697.556 1263.55 Z" fill="#000000" fill-rule="nonzero" fill-opacity="1" /><path clip-path="url(#clip630)" d="M712.672 1234.87 L731.029 1234.87 L731.029 1238.81 L716.955 1238.81 L716.955 1247.28 Q717.973 1246.93 718.992 1246.77 Q720.01 1246.58 721.029 1246.58 Q726.816 1246.58 730.195 1249.75 Q733.575 1252.93 733.575 1258.34 Q733.575 1263.92 730.103 1267.02 Q726.63 1270.1 720.311 1270.1 Q718.135 1270.1 715.867 1269.73 Q713.621 1269.36 711.214 1268.62 L711.214 1263.92 Q713.297 1265.06 715.519 1265.61 Q717.742 1266.17 720.218 1266.17 Q724.223 1266.17 726.561 1264.06 Q728.899 1261.95 728.899 1258.34 Q728.899 1254.73 726.561 1252.62 Q724.223 1250.52 720.218 1250.52 Q718.343 1250.52 716.468 1250.94 Q714.617 1251.35 712.672 1252.23 L712.672 1234.87 Z" fill="#000000" fill-rule="nonzero" fill-opacity="1" /><path clip-path="url(#clip630)" d="M804.352 1305.08 L811.991 1305.08 L811.991 1278.72 L803.68 1280.39 L803.68 1276.13 L811.944 1274.46 L816.62 1274.46 L816.62 1305.08 L824.259 1305.08 L824.259 1309.02 L804.352 1309.02 L804.352 1305.08 Z" fill="#000000" fill-rule="nonzero" fill-opacity="1" /><path clip-path="url(#clip630)" d="M833.703 1303.14 L838.588 1303.14 L838.588 1309.02 L833.703 1309.02 L833.703 1303.14 Z" fill="#000000" fill-rule="nonzero" fill-opacity="1" /><path clip-path="url(#clip630)" d="M858.773 1277.54 Q855.162 1277.54 853.333 1281.1 Q851.527 1284.64 851.527 1291.77 Q851.527 1298.88 853.333 1302.45 Q855.162 1305.99 858.773 1305.99 Q862.407 1305.99 864.212 1302.45 Q866.041 1298.88 866.041 1291.77 Q866.041 1284.64 864.212 1281.1 Q862.407 1277.54 858.773 1277.54 M858.773 1273.83 Q864.583 1273.83 867.638 1278.44 Q870.717 1283.02 870.717 1291.77 Q870.717 1300.5 867.638 1305.11 Q864.583 1309.69 858.773 1309.69 Q852.963 1309.69 849.884 1305.11 Q846.828 1300.5 846.828 1291.77 Q846.828 1283.02 849.884 1278.44 Q852.963 1273.83 858.773 1273.83 Z" fill="#000000" fill-rule="nonzero" fill-opacity="1" /><path clip-path="url(#clip630)" d="M942.489 1344.67 L950.128 1344.67 L950.128 1318.31 L941.818 1319.98 L941.818 1315.72 L950.082 1314.05 L954.758 1314.05 L954.758 1344.67 L962.397 1344.67 L962.397 1348.61 L942.489 1348.61 L942.489 1344.67 Z" fill="#000000" fill-rule="nonzero" fill-opacity="1" /><path clip-path="url(#clip630)" d="M971.841 1342.73 L976.725 1342.73 L976.725 1348.61 L971.841 1348.61 L971.841 1342.73 Z" fill="#000000" fill-rule="nonzero" fill-opacity="1" /><path clip-path="url(#clip630)" d="M986.957 1314.05 L1005.31 1314.05 L1005.31 1317.98 L991.239 1317.98 L991.239 1326.46 Q992.258 1326.11 993.276 1325.95 Q994.295 1325.76 995.313 1325.76 Q1001.1 1325.76 1004.48 1328.93 Q1007.86 1332.1 1007.86 1337.52 Q1007.86 1343.1 1004.39 1346.2 Q1000.91 1349.28 994.596 1349.28 Q992.42 1349.28 990.151 1348.91 Q987.906 1348.54 985.498 1347.8 L985.498 1343.1 Q987.582 1344.23 989.804 1344.79 Q992.026 1345.35 994.503 1345.35 Q998.508 1345.35 1000.85 1343.24 Q1003.18 1341.13 1003.18 1337.52 Q1003.18 1333.91 1000.85 1331.8 Q998.508 1329.7 994.503 1329.7 Q992.628 1329.7 990.753 1330.11 Q988.901 1330.53 986.957 1331.41 L986.957 1314.05 Z" fill="#000000" fill-rule="nonzero" fill-opacity="1" /><path clip-path="url(#clip630)" d="M1081.85 1384.26 L1098.17 1384.26 L1098.17 1388.2 L1076.23 1388.2 L1076.23 1384.26 Q1078.89 1381.51 1083.47 1376.88 Q1088.08 1372.23 1089.26 1370.88 Q1091.51 1368.36 1092.39 1366.63 Q1093.29 1364.87 1093.29 1363.18 Q1093.29 1360.42 1091.34 1358.69 Q1089.42 1356.95 1086.32 1356.95 Q1084.12 1356.95 1081.67 1357.71 Q1079.24 1358.48 1076.46 1360.03 L1076.46 1355.31 Q1079.28 1354.17 1081.74 1353.59 Q1084.19 1353.01 1086.23 1353.01 Q1091.6 1353.01 1094.79 1355.7 Q1097.99 1358.38 1097.99 1362.88 Q1097.99 1365 1097.18 1366.93 Q1096.39 1368.82 1094.28 1371.42 Q1093.71 1372.09 1090.6 1375.31 Q1087.5 1378.5 1081.85 1384.26 Z" fill="#000000" fill-rule="nonzero" fill-opacity="1" /><path clip-path="url(#clip630)" d="M1107.99 1382.32 L1112.87 1382.32 L1112.87 1388.2 L1107.99 1388.2 L1107.99 1382.32 Z" fill="#000000" fill-rule="nonzero" fill-opacity="1" /><path clip-path="url(#clip630)" d="M1133.06 1356.72 Q1129.45 1356.72 1127.62 1360.28 Q1125.81 1363.82 1125.81 1370.95 Q1125.81 1378.06 1127.62 1381.62 Q1129.45 1385.17 1133.06 1385.17 Q1136.69 1385.17 1138.5 1381.62 Q1140.33 1378.06 1140.33 1370.95 Q1140.33 1363.82 1138.5 1360.28 Q1136.69 1356.72 1133.06 1356.72 M1133.06 1353.01 Q1138.87 1353.01 1141.92 1357.62 Q1145 1362.2 1145 1370.95 Q1145 1379.68 1141.92 1384.29 Q1138.87 1388.87 1133.06 1388.87 Q1127.25 1388.87 1124.17 1384.29 Q1121.11 1379.68 1121.11 1370.95 Q1121.11 1362.2 1124.17 1357.62 Q1127.25 1353.01 1133.06 1353.01 Z" fill="#000000" fill-rule="nonzero" fill-opacity="1" /><path clip-path="url(#clip630)" d="M1219.99 1423.85 L1236.31 1423.85 L1236.31 1427.79 L1214.37 1427.79 L1214.37 1423.85 Q1217.03 1421.1 1221.61 1416.47 Q1226.22 1411.82 1227.4 1410.47 Q1229.64 1407.95 1230.52 1406.21 Q1231.43 1404.46 1231.43 1402.77 Q1231.43 1400.01 1229.48 1398.27 Q1227.56 1396.54 1224.46 1396.54 Q1222.26 1396.54 1219.81 1397.3 Q1217.38 1398.07 1214.6 1399.62 L1214.6 1394.9 Q1217.42 1393.76 1219.88 1393.18 Q1222.33 1392.6 1224.37 1392.6 Q1229.74 1392.6 1232.93 1395.29 Q1236.13 1397.97 1236.13 1402.46 Q1236.13 1404.59 1235.32 1406.52 Q1234.53 1408.41 1232.42 1411.01 Q1231.84 1411.68 1228.74 1414.9 Q1225.64 1418.09 1219.99 1423.85 Z" fill="#000000" fill-rule="nonzero" fill-opacity="1" /><path clip-path="url(#clip630)" d="M1246.13 1421.91 L1251.01 1421.91 L1251.01 1427.79 L1246.13 1427.79 L1246.13 1421.91 Z" fill="#000000" fill-rule="nonzero" fill-opacity="1" /><path clip-path="url(#clip630)" d="M1261.24 1393.23 L1279.6 1393.23 L1279.6 1397.16 L1265.52 1397.16 L1265.52 1405.64 Q1266.54 1405.29 1267.56 1405.13 Q1268.58 1404.94 1269.6 1404.94 Q1275.38 1404.94 1278.76 1408.11 Q1282.14 1411.28 1282.14 1416.7 Q1282.14 1422.28 1278.67 1425.38 Q1275.2 1428.46 1268.88 1428.46 Q1266.7 1428.46 1264.44 1428.09 Q1262.19 1427.72 1259.78 1426.98 L1259.78 1422.28 Q1261.87 1423.41 1264.09 1423.97 Q1266.31 1424.52 1268.79 1424.52 Q1272.79 1424.52 1275.13 1422.42 Q1277.47 1420.31 1277.47 1416.7 Q1277.47 1413.09 1275.13 1410.98 Q1272.79 1408.88 1268.79 1408.88 Q1266.91 1408.88 1265.04 1409.29 Q1263.19 1409.71 1261.24 1410.59 L1261.24 1393.23 Z" fill="#000000" fill-rule="nonzero" fill-opacity="1" /><polyline clip-path="url(#clip630)" style="stroke:#000000; stroke-linecap:round; stroke-linejoin:round; stroke-width:4; stroke-opacity:1; fill:none" points="1384.54,1410.41 1800,1050.61 "/>
<polyline clip-path="url(#clip630)" style="stroke:#000000; stroke-linecap:round; stroke-linejoin:round; stroke-width:4; stroke-opacity:1; fill:none" points="1399.5,1397.46 1390.86,1394.97 "/>
<polyline clip-path="url(#clip630)" style="stroke:#000000; stroke-linecap:round; stroke-linejoin:round; stroke-width:4; stroke-opacity:1; fill:none" points="1473.6,1333.29 1464.96,1330.79 "/>
<polyline clip-path="url(#clip630)" style="stroke:#000000; stroke-linecap:round; stroke-linejoin:round; stroke-width:4; stroke-opacity:1; fill:none" points="1547.7,1269.11 1539.06,1266.62 "/>
<polyline clip-path="url(#clip630)" style="stroke:#000000; stroke-linecap:round; stroke-linejoin:round; stroke-width:4; stroke-opacity:1; fill:none" points="1621.8,1204.94 1613.16,1202.45 "/>
<polyline clip-path="url(#clip630)" style="stroke:#000000; stroke-linecap:round; stroke-linejoin:round; stroke-width:4; stroke-opacity:1; fill:none" points="1695.9,1140.77 1687.26,1138.27 "/>
<polyline clip-path="url(#clip630)" style="stroke:#000000; stroke-linecap:round; stroke-linejoin:round; stroke-width:4; stroke-opacity:1; fill:none" points="1770,1076.59 1761.36,1074.1 "/>
<path clip-path="url(#clip630)" d="M1425.94 1422.8 Q1429.29 1423.51 1431.17 1425.78 Q1433.07 1428.05 1433.07 1431.38 Q1433.07 1436.5 1429.55 1439.3 Q1426.03 1442.1 1419.55 1442.1 Q1417.37 1442.1 1415.06 1441.66 Q1412.77 1441.24 1410.31 1440.39 L1410.31 1435.87 Q1412.26 1437.01 1414.57 1437.59 Q1416.89 1438.17 1419.41 1438.17 Q1423.81 1438.17 1426.1 1436.43 Q1428.41 1434.69 1428.41 1431.38 Q1428.41 1428.33 1426.26 1426.61 Q1424.13 1424.88 1420.31 1424.88 L1416.28 1424.88 L1416.28 1421.04 L1420.5 1421.04 Q1423.95 1421.04 1425.77 1419.67 Q1427.6 1418.28 1427.6 1415.69 Q1427.6 1413.03 1425.71 1411.61 Q1423.83 1410.18 1420.31 1410.18 Q1418.39 1410.18 1416.19 1410.6 Q1413.99 1411.01 1411.35 1411.89 L1411.35 1407.73 Q1414.02 1406.99 1416.33 1406.61 Q1418.67 1406.24 1420.73 1406.24 Q1426.05 1406.24 1429.15 1408.68 Q1432.26 1411.08 1432.26 1415.2 Q1432.26 1418.07 1430.61 1420.06 Q1428.97 1422.03 1425.94 1422.8 Z" fill="#000000" fill-rule="nonzero" fill-opacity="1" /><path clip-path="url(#clip630)" d="M1500.01 1346.77 L1488.21 1365.22 L1500.01 1365.22 L1500.01 1346.77 M1498.79 1342.7 L1504.67 1342.7 L1504.67 1365.22 L1509.6 1365.22 L1509.6 1369.11 L1504.67 1369.11 L1504.67 1377.26 L1500.01 1377.26 L1500.01 1369.11 L1484.41 1369.11 L1484.41 1364.59 L1498.79 1342.7 Z" fill="#000000" fill-rule="nonzero" fill-opacity="1" /><path clip-path="url(#clip630)" d="M1559.97 1278.52 L1578.33 1278.52 L1578.33 1282.46 L1564.25 1282.46 L1564.25 1290.93 Q1565.27 1290.58 1566.29 1290.42 Q1567.31 1290.24 1568.33 1290.24 Q1574.11 1290.24 1577.49 1293.41 Q1580.87 1296.58 1580.87 1302 Q1580.87 1307.58 1577.4 1310.68 Q1573.93 1313.76 1567.61 1313.76 Q1565.43 1313.76 1563.17 1313.39 Q1560.92 1313.01 1558.51 1312.27 L1558.51 1307.58 Q1560.6 1308.71 1562.82 1309.26 Q1565.04 1309.82 1567.52 1309.82 Q1571.52 1309.82 1573.86 1307.71 Q1576.2 1305.61 1576.2 1302 Q1576.2 1298.39 1573.86 1296.28 Q1571.52 1294.17 1567.52 1294.17 Q1565.64 1294.17 1563.77 1294.59 Q1561.92 1295.01 1559.97 1295.89 L1559.97 1278.52 Z" fill="#000000" fill-rule="nonzero" fill-opacity="1" /><path clip-path="url(#clip630)" d="M1644.95 1229.77 Q1641.8 1229.77 1639.95 1231.92 Q1638.12 1234.07 1638.12 1237.82 Q1638.12 1241.55 1639.95 1243.73 Q1641.8 1245.88 1644.95 1245.88 Q1648.1 1245.88 1649.93 1243.73 Q1651.78 1241.55 1651.78 1237.82 Q1651.78 1234.07 1649.93 1231.92 Q1648.1 1229.77 1644.95 1229.77 M1654.23 1215.12 L1654.23 1219.37 Q1652.47 1218.54 1650.67 1218.1 Q1648.89 1217.66 1647.13 1217.66 Q1642.5 1217.66 1640.04 1220.79 Q1637.61 1223.91 1637.27 1230.23 Q1638.63 1228.22 1640.69 1227.15 Q1642.75 1226.06 1645.23 1226.06 Q1650.44 1226.06 1653.45 1229.24 Q1656.48 1232.38 1656.48 1237.82 Q1656.48 1243.15 1653.33 1246.37 Q1650.18 1249.58 1644.95 1249.58 Q1638.95 1249.58 1635.78 1245 Q1632.61 1240.39 1632.61 1231.67 Q1632.61 1223.47 1636.5 1218.61 Q1640.39 1213.73 1646.94 1213.73 Q1648.7 1213.73 1650.48 1214.07 Q1652.29 1214.42 1654.23 1215.12 Z" fill="#000000" fill-rule="nonzero" fill-opacity="1" /><path clip-path="url(#clip630)" d="M1706.71 1150.18 L1728.93 1150.18 L1728.93 1152.17 L1716.39 1184.74 L1711.5 1184.74 L1723.31 1154.11 L1706.71 1154.11 L1706.71 1150.18 Z" fill="#000000" fill-rule="nonzero" fill-opacity="1" /><path clip-path="url(#clip630)" d="M1792.66 1104.15 Q1789.33 1104.15 1787.41 1105.94 Q1785.51 1107.72 1785.51 1110.84 Q1785.51 1113.97 1787.41 1115.75 Q1789.33 1117.53 1792.66 1117.53 Q1796 1117.53 1797.92 1115.75 Q1799.84 1113.95 1799.84 1110.84 Q1799.84 1107.72 1797.92 1105.94 Q1796.02 1104.15 1792.66 1104.15 M1787.99 1102.16 Q1784.98 1101.42 1783.29 1099.36 Q1781.62 1097.3 1781.62 1094.34 Q1781.62 1090.2 1784.56 1087.79 Q1787.53 1085.38 1792.66 1085.38 Q1797.83 1085.38 1800.77 1087.79 Q1803.71 1090.2 1803.71 1094.34 Q1803.71 1097.3 1802.02 1099.36 Q1800.35 1101.42 1797.36 1102.16 Q1800.74 1102.95 1802.62 1105.24 Q1804.52 1107.53 1804.52 1110.84 Q1804.52 1115.87 1801.44 1118.55 Q1798.38 1121.24 1792.66 1121.24 Q1786.95 1121.24 1783.87 1118.55 Q1780.81 1115.87 1780.81 1110.84 Q1780.81 1107.53 1782.71 1105.24 Q1784.61 1102.95 1787.99 1102.16 M1786.28 1094.78 Q1786.28 1097.46 1787.94 1098.97 Q1789.63 1100.47 1792.66 1100.47 Q1795.67 1100.47 1797.36 1098.97 Q1799.08 1097.46 1799.08 1094.78 Q1799.08 1092.09 1797.36 1090.59 Q1795.67 1089.09 1792.66 1089.09 Q1789.63 1089.09 1787.94 1090.59 Q1786.28 1092.09 1786.28 1094.78 Z" fill="#000000" fill-rule="nonzero" fill-opacity="1" /><polyline clip-path="url(#clip630)" style="stroke:#000000; stroke-linecap:round; stroke-linejoin:round; stroke-width:4; stroke-opacity:1; fill:none" points="664.934,1202.68 664.934,483.08 "/>
<polyline clip-path="url(#clip630)" style="stroke:#000000; stroke-linecap:round; stroke-linejoin:round; stroke-width:4; stroke-opacity:1; fill:none" points="664.934,1153.65 669.92,1149.33 "/>
<polyline clip-path="url(#clip630)" style="stroke:#000000; stroke-linecap:round; stroke-linejoin:round; stroke-width:4; stroke-opacity:1; fill:none" points="664.934,1046.46 669.92,1042.14 "/>
<polyline clip-path="url(#clip630)" style="stroke:#000000; stroke-linecap:round; stroke-linejoin:round; stroke-width:4; stroke-opacity:1; fill:none" points="664.934,939.273 669.92,934.955 "/>
<polyline clip-path="url(#clip630)" style="stroke:#000000; stroke-linecap:round; stroke-linejoin:round; stroke-width:4; stroke-opacity:1; fill:none" points="664.934,832.083 669.92,827.765 "/>
<polyline clip-path="url(#clip630)" style="stroke:#000000; stroke-linecap:round; stroke-linejoin:round; stroke-width:4; stroke-opacity:1; fill:none" points="664.934,724.894 669.92,720.576 "/>
<polyline clip-path="url(#clip630)" style="stroke:#000000; stroke-linecap:round; stroke-linejoin:round; stroke-width:4; stroke-opacity:1; fill:none" points="664.934,617.704 669.92,613.387 "/>
<polyline clip-path="url(#clip630)" style="stroke:#000000; stroke-linecap:round; stroke-linejoin:round; stroke-width:4; stroke-opacity:1; fill:none" points="664.934,510.515 669.92,506.197 "/>
<path clip-path="url(#clip630)" d="M629.005 1152.3 Q632.361 1153.01 634.236 1155.28 Q636.134 1157.55 636.134 1160.89 Q636.134 1166 632.616 1168.8 Q629.097 1171.6 622.616 1171.6 Q620.44 1171.6 618.125 1171.16 Q615.834 1170.75 613.38 1169.89 L613.38 1165.38 Q615.324 1166.51 617.639 1167.09 Q619.954 1167.67 622.477 1167.67 Q626.875 1167.67 629.167 1165.93 Q631.482 1164.2 631.482 1160.89 Q631.482 1157.83 629.329 1156.12 Q627.199 1154.38 623.38 1154.38 L619.352 1154.38 L619.352 1150.54 L623.565 1150.54 Q627.014 1150.54 628.843 1149.17 Q630.671 1147.78 630.671 1145.19 Q630.671 1142.53 628.773 1141.12 Q626.898 1139.68 623.38 1139.68 Q621.459 1139.68 619.26 1140.1 Q617.06 1140.51 614.422 1141.39 L614.422 1137.23 Q617.084 1136.49 619.398 1136.12 Q621.736 1135.75 623.797 1135.75 Q629.121 1135.75 632.222 1138.18 Q635.324 1140.58 635.324 1144.7 Q635.324 1147.57 633.681 1149.57 Q632.037 1151.53 629.005 1152.3 Z" fill="#000000" fill-rule="nonzero" fill-opacity="1" /><path clip-path="url(#clip630)" d="M626.551 1033.26 L614.746 1051.7 L626.551 1051.7 L626.551 1033.26 M625.324 1029.18 L631.204 1029.18 L631.204 1051.7 L636.134 1051.7 L636.134 1055.59 L631.204 1055.59 L631.204 1063.74 L626.551 1063.74 L626.551 1055.59 L610.949 1055.59 L610.949 1051.08 L625.324 1029.18 Z" fill="#000000" fill-rule="nonzero" fill-opacity="1" /><path clip-path="url(#clip630)" d="M615.232 921.993 L633.588 921.993 L633.588 925.928 L619.514 925.928 L619.514 934.4 Q620.533 934.053 621.551 933.891 Q622.57 933.705 623.588 933.705 Q629.375 933.705 632.755 936.877 Q636.134 940.048 636.134 945.465 Q636.134 951.043 632.662 954.145 Q629.19 957.224 622.871 957.224 Q620.695 957.224 618.426 956.853 Q616.181 956.483 613.773 955.742 L613.773 951.043 Q615.857 952.178 618.079 952.733 Q620.301 953.289 622.778 953.289 Q626.783 953.289 629.121 951.182 Q631.459 949.076 631.459 945.465 Q631.459 941.854 629.121 939.747 Q626.783 937.641 622.778 937.641 Q620.903 937.641 619.028 938.057 Q617.176 938.474 615.232 939.354 L615.232 921.993 Z" fill="#000000" fill-rule="nonzero" fill-opacity="1" /><path clip-path="url(#clip630)" d="M624.607 830.22 Q621.459 830.22 619.607 832.372 Q617.778 834.525 617.778 838.275 Q617.778 842.002 619.607 844.178 Q621.459 846.331 624.607 846.331 Q627.755 846.331 629.584 844.178 Q631.435 842.002 631.435 838.275 Q631.435 834.525 629.584 832.372 Q627.755 830.22 624.607 830.22 M633.889 815.567 L633.889 819.826 Q632.13 818.993 630.324 818.553 Q628.542 818.113 626.783 818.113 Q622.153 818.113 619.699 821.238 Q617.269 824.363 616.922 830.683 Q618.287 828.669 620.347 827.604 Q622.408 826.516 624.884 826.516 Q630.093 826.516 633.102 829.687 Q636.134 832.835 636.134 838.275 Q636.134 843.599 632.986 846.817 Q629.838 850.034 624.607 850.034 Q618.611 850.034 615.44 845.451 Q612.269 840.845 612.269 832.118 Q612.269 823.923 616.158 819.062 Q620.047 814.178 626.597 814.178 Q628.357 814.178 630.139 814.525 Q631.945 814.873 633.889 815.567 Z" fill="#000000" fill-rule="nonzero" fill-opacity="1" /><path clip-path="url(#clip630)" d="M613.912 707.614 L636.134 707.614 L636.134 709.604 L623.588 742.174 L618.704 742.174 L630.509 711.549 L613.912 711.549 L613.912 707.614 Z" fill="#000000" fill-rule="nonzero" fill-opacity="1" /><path clip-path="url(#clip630)" d="M624.283 618.572 Q620.949 618.572 619.028 620.355 Q617.13 622.137 617.13 625.262 Q617.13 628.387 619.028 630.169 Q620.949 631.952 624.283 631.952 Q627.616 631.952 629.537 630.169 Q631.459 628.364 631.459 625.262 Q631.459 622.137 629.537 620.355 Q627.639 618.572 624.283 618.572 M619.607 616.582 Q616.597 615.841 614.908 613.781 Q613.241 611.72 613.241 608.758 Q613.241 604.614 616.181 602.207 Q619.144 599.799 624.283 599.799 Q629.445 599.799 632.384 602.207 Q635.324 604.614 635.324 608.758 Q635.324 611.72 633.634 613.781 Q631.968 615.841 628.982 616.582 Q632.361 617.369 634.236 619.66 Q636.134 621.952 636.134 625.262 Q636.134 630.285 633.056 632.97 Q630 635.656 624.283 635.656 Q618.565 635.656 615.486 632.97 Q612.431 630.285 612.431 625.262 Q612.431 621.952 614.329 619.66 Q616.227 617.369 619.607 616.582 M617.894 609.197 Q617.894 611.883 619.56 613.387 Q621.25 614.892 624.283 614.892 Q627.292 614.892 628.982 613.387 Q630.695 611.883 630.695 609.197 Q630.695 606.512 628.982 605.008 Q627.292 603.503 624.283 603.503 Q621.25 603.503 619.56 605.008 Q617.894 606.512 617.894 609.197 Z" fill="#000000" fill-rule="nonzero" fill-opacity="1" /><path clip-path="url(#clip630)" d="M614.514 527.077 L614.514 522.818 Q616.273 523.651 618.079 524.091 Q619.885 524.531 621.621 524.531 Q626.25 524.531 628.681 521.429 Q631.134 518.304 631.482 511.962 Q630.139 513.952 628.079 515.017 Q626.019 516.082 623.519 516.082 Q618.334 516.082 615.301 512.957 Q612.292 509.809 612.292 504.369 Q612.292 499.045 615.44 495.827 Q618.588 492.61 623.82 492.61 Q629.815 492.61 632.963 497.216 Q636.134 501.8 636.134 510.55 Q636.134 518.721 632.246 523.605 Q628.38 528.466 621.829 528.466 Q620.07 528.466 618.264 528.119 Q616.459 527.772 614.514 527.077 M623.82 512.425 Q626.968 512.425 628.796 510.272 Q630.648 508.119 630.648 504.369 Q630.648 500.642 628.796 498.489 Q626.968 496.314 623.82 496.314 Q620.672 496.314 618.82 498.489 Q616.991 500.642 616.991 504.369 Q616.991 508.119 618.82 510.272 Q620.672 512.425 623.82 512.425 Z" fill="#000000" fill-rule="nonzero" fill-opacity="1" /><polyline clip-path="url(#clip631)" style="stroke:#009af9; stroke-linecap:round; stroke-linejoin:round; stroke-width:4; stroke-opacity:1; fill:none" points="1037.73,858.489 1040.29,855.124 1044.35,850.073 1038.15,857.391 1036.53,859.115 1038.78,856.139 1031.08,865.088 1034.38,860.707 1035.62,858.853 1033.01,861.612 1032.11,862.228 1023.75,871.74 1024.26,870.27 1019.17,875.615 1005.66,890.913 1012.19,881.729 1005.51,888.521 999.195,894.429 996.258,896.245 973.541,921.579 974.547,917.515 950.639,943.557 945.541,945.985 926.899,964.262 949.341,931.635 936.3,945.201 896.733,990.545 880.751,1004.25 854.935,1028.96 852.963,1024.26 847.201,1025.51 857.996,1007.11 889.859,968.154 900.498,958.637 864.301,1003.41 905.837,953.169 880.593,988.613 846.105,1027.75 880.744,981.071 912.58,948.826 937.403,924.101 964.375,901.452 962.649,907.335 997.455,872.114 994.931,883.489 998.234,882.699 1004.28,871.379 1006.18,877.5 980.282,904.073 1031.5,862.767 1041.71,852.253 1024.27,867.372 1024.76,864.053 1031.37,859.22 1053.49,842.465 1039.98,850.19 1035.33,864.558 1000.18,874.03 1052.6,832.106 1023.23,867.024 994.257,892.763 976.215,902.893 966.492,910.751 994.436,895.536 985.241,894.761 982.596,890.478 925.345,940.85 948.389,918.82 970.573,900.606 955.549,927.716 938.719,929.076 932.344,945.887 932.065,943.335 945.886,928.075 994.35,887.77 996.887,885.449 957.817,927.463 991.372,898.757 1063.59,833.104 1134,782.468 1164.73,748.453 1117.32,789.769 1226.43,712.163 1322.53,626.987 1354.87,618.942 1284.78,685.173 1271.29,680.416 1267.74,677.944 1282.96,676.648 1207.25,742.233 1222.04,721.154 1173.1,765.388 1125.89,802.937 1127.66,784.169 1196.96,718.496 1234.3,676.927 1204.53,721.446 1214.44,721.842 1208.84,727.472 1255.53,692.902 1291.38,657.556 1331.33,623.526 1281.51,691.314 1247.69,701.305 1224.18,717.645 1172.03,758.603 1095.08,815.553 1207.81,707.715 1282.57,641.482 1258.36,682.239 1279.73,674.41 1189.84,740.331 1108.81,804.013 1108.19,792.004 1087.26,810.186 1128.23,776.01 1119.94,789.777 1164.58,752.741 1141.88,774.321 1229.24,698.299 1301.31,657.586 1442.79,548.544 1364.32,623.486 1349.19,640.321 1228.57,735.976 1151.67,785.423 1116.54,807.123 1088.63,828.691 1092.27,818.293 1084.84,818.166 1023.79,868.162 1047.11,836.621 972.512,917.021 945.048,931.154 946.638,928.499 912.918,955.49 1032.74,825.707 1054.65,821.057 1068.3,823.141 1118.16,766.903 1205.39,695.003 1222.52,709.921 1203.99,725.748 1208.26,728.468 1169.45,762.806 1124.12,795.593 1146.45,774.434 1188.76,726.67 1197.42,721.678 1168.98,751.142 1114.79,798.768 1159.42,751.7 1187.7,727.575 1283.13,650.262 1199.3,737.608 1180.49,740.369 1114.49,804.254 1029.1,877.47 1021.73,875.257 1005.91,881.016 954.795,933.024 903.965,977.284 899.517,975.453 949.736,911.357 977.982,894.606 985.948,891.093 994.804,888.037 1028.17,850.696 1030.12,858.486 1110.3,785.291 1087.42,810.672 1073.61,827.028 1133.92,768.79 1124.15,778.196 1213.59,708.12 1264.7,676.809 1273.94,662.542 1347.72,611.971 1453.7,535.218 1467.13,537.971 1562.31,486.178 1642.57,439.427 1626.35,454.499 1710.96,407.484 1754.12,380.524 1659.74,455.705 1605.74,485.43 1552.76,514.476 1449.95,594.258 1407.37,610.559 1391.33,612.863 1365.85,628.629 1435.84,554.209 1476.69,535.893 1475.53,546.12 1444.75,569.606 1514.94,516.404 1504,530.303 1634.05,420.147 1767.87,355.68 1736.69,400.612 1636.23,479.507 1585.54,513.323 1611.58,473.759 1480.35,580.981 1429.4,601.934 1437.38,583.728 1355.6,646.942 1412.8,579.515 1404.11,588.091 1426.63,573.537 1401.01,595.12 1379.54,605.68 1465.24,529.443 1539.35,472.942 1519.04,514.989 1521.58,524.93 1493.79,560.582 1486.36,553.194 1504.49,535.372 1526.55,528.46 1553.71,492.83 1542.48,507.981 1380.15,639.542 1262.47,730.011 1250.98,718.027 1191.29,762.963 1160.21,775.408 1110.43,814.337 1034.37,878.817 1078.95,817.756 1040.6,855.761 1030.58,855.687 1064.69,824.232 1123.56,766.116 1141.48,758.077 1090.19,808.747 1070.89,817.81 1047.87,845.22 952.011,936.152 914.996,967.009 959.445,915.266 935.263,940.696 963.722,910.022 921.576,961.536 895.961,978.153 911.607,959.029 926.618,947.065 873.911,998.622 926.495,942.585 1005.6,861.544 1066.16,802.135 1131.07,760.935 1105.74,793.858 1137.03,776.482 1100.26,819.832 1167.57,743.356 1207.36,713.134 1228.88,700.633 1240.17,699.346 1175.38,763.928 1086.84,822.965 1046.33,860.042 942.1,961.349 974.605,911.131 976.49,900.934 1022.66,845.952 1065.86,808.293 1082.15,808.928 1080.3,814.334 1094.42,803.086 1071.71,824.129 1093.72,800.384 1073.87,838.003 1086.41,811.853 1143.92,758.914 1214.81,715.654 1171.1,761.246 1173.83,740.74 1195.74,726.638 1275.28,668.904 1316.17,643.824 1395.92,585.888 1413.83,592.461 1352.58,639.743 1434.58,582.754 1475.99,549.862 1361.16,636.344 1372.19,631.802 1465.39,536.756 1470.45,544.203 1370.47,625.657 1395.16,597.467 1292.15,664.736 1264.26,696.972 1290.06,673.659 1214.09,746.639 1228.21,718.91 1166.38,774.647 1161.9,756.042 1170.35,753.55 1167.36,750.078 1272.84,661.296 1300.73,645.044 1258.62,690.058 1201.94,724.046 1083.94,832.796 1094.36,813.256 1113.23,789.032 1119.88,785.464 1087.49,818.754 1077.73,835.234 1026.14,874.717 1002.56,892.08 986.218,897.559 899.954,979.805 862.01,1009.14 812.365,1062.48 868.283,987.174 844.066,1019.52 837.444,1032.61 818.571,1045.84 832.303,1030.92 808.102,1058.82 800.116,1065.14 744.721,1131.09 729.43,1142.39 722.455,1146.88 721.186,1148.08 722.623,1143.57 697.791,1178.22 698.735,1174.7 708.231,1162.72 739.47,1122.63 726.139,1140.7 751.448,1108.07 762.434,1093.8 752.063,1113.81 783.558,1073.71 791.23,1070.38 750.692,1125.6 735.003,1133.46 732.881,1137.13 756.376,1105.01 784.209,1073.87 843.688,1005.89 843.431,1016.82 827.89,1040.21 867.373,996.716 884.31,979.726 930.732,926.03 942.043,933.169 943.42,929.978 891.074,985.826 874.376,1001.88 877.162,991.345 876.375,992.14 884.318,978.598 953.083,907.861 953.611,914.262 893.066,976.504 936.564,931.449 959.5,910.948 939.353,933.28 910.201,962.55 863.496,1011.1 872.899,996.114 923.86,941.826 939.935,931.502 970.145,897.721 964.415,905.468 1041.95,840.524 1072.92,814.003 1098.86,804.584 1068.29,837.87 1035.2,850.439 1029.93,859.445 969.411,910.876 970.749,905.461 999.985,871.092 1078.61,801.819 1154.95,737.054 1157.84,747.562 1090.31,818.89 1104.46,791.436 1088.53,807.308 1193.02,706.686 1212.22,701.713 1288.42,652.453 1253.1,693.019 1156.41,771.287 1078.19,827.892 1070.62,825.37 1076.35,811.328 1080.31,822.612 1102.23,797.134 1062.41,832.7 1120.77,783.329 1063.04,844.748 1083.06,816.582 1133.46,776.224 1142.45,770.857 1089.04,814.106 1148.78,760.391 1222.09,708.392 1200.1,723.531 1237.25,687.943 1211.16,720.121 1228.94,693.114 1170.36,726.24 1220.74,694.297 1221.63,688.141 1105.81,774.689 1076.31,802.008 1106.09,794.18 1233.51,692.273 1300.4,657.717 1191.41,734.053 1187.14,742.868 1250.17,700.766 1282.42,665.336 1377.69,607.673 1334.44,648.282 1269.23,696.926 1295.25,662.569 1410.49,556.531 1394.56,586.548 1457.27,542.971 1310.41,673.765 1244.28,719.596 1234.81,714.04 1219.85,721.76 1187.64,743.968 1129.4,794.533 1104.03,807.908 1078.65,828.575 1031.28,859.491 1103.53,788.533 1046.17,845.841 998.192,892.403 1018.28,874.022 1114.79,797.782 1126.65,782.454 1054.79,844.601 1061.45,829.669 1016.75,874.888 993.691,896.007 1015.45,878.23 1105.21,798.738 931.876,971.625 961.471,925.017 993.194,883.422 1024.3,858.387 1027.04,862.975 987.376,884.6 1006.03,864.795 1045.07,825.258 1046.42,833.229 1039.2,851.278 1188.93,722.348 1148.83,772.54 1089.78,824.631 1086.48,835.304 1026.47,871.094 996.087,900.548 1025.26,861.848 1092.51,792.639 1178.66,732.06 1216.77,700.538 1316.61,628.295 1369.48,592.87 1347.38,630.201 1452.18,553.989 1450.4,564.195 1491.06,524.233 1502.65,534.441 1422.6,580.821 1392.29,607.894 1339.27,636.12 1303.52,670.064 1344.01,634.484 1404.7,573.217 1336.8,640.109 1340.63,630.726 1408.63,588.472 1448.25,553.892 1462.72,563.499 1415.41,595.3 1511.84,501.557 1410.73,595.804 1374.18,612.7 1311.66,660.447 1342.58,635.843 1320.94,660.762 1371.83,606.619 1296.83,669.644 1275.82,668.736 1318.68,650.298 1390.56,602.918 1405.12,585.819 1426.71,568.222 1449.95,552.062 1385.19,607.343 1276.24,701.151 1265.39,696.428 1273.58,667.53 1297.13,650.866 1255.58,673.51 1233.77,698.202 1194.16,718.77 1116.93,794.046 1081.68,835.579 973.629,927.741 977.48,911.123 974.404,907.84 981.69,903.203 1044.82,828.62 1055.22,832.595 1077.66,818.631 1098.71,793.986 1130.13,770.199 1101.35,811.622 1147.67,761.677 1190.51,727.44 1073.39,833.733 1106.42,800.548 1165.84,758.378 1100.71,809.368 1154.95,742.285 1222.53,697.475 1282.57,658.258 1267.68,688.561 1178.91,757.243 1152.76,771.244 1094.01,810.021 1003.27,894.999 1031.81,852.434 930.409,950.285 889.541,982.601 930.004,937.541 825.057,1047.24 851.255,1021.3 858.837,1005.7 846.307,1018 918.479,946.331 906.704,963.786 948.928,919.443 1003.46,871.545 1004.22,884.335 1002.92,883.873 1017.39,866.295 1045.57,851.507 1110.73,787.366 1064,820.202 1177.57,715.563 1160.53,747.337 1117.26,806.231 1101.6,806.53 1134.12,778.048 1071.9,828.163 1065.83,828.193 1052.83,852.944 1040.72,841.273 1052.96,840.61 1072.33,823.842 1134.56,785.839 1049.4,847.486 1022.33,864.156 1022.96,864.602 1059.09,842.964 1051.29,847.747 1107.97,803.837 1031.98,865.165 987.981,908.211 949.758,926.062 982.223,883.338 1088.32,793.043 1112.45,787.379 1130.64,766.247 1131.19,763.731 1176.75,719.101 1198.64,714.357 1319.8,605.943 1349.6,613.15 1325.67,647.225 1285.35,672.357 1296.5,663.072 1281.28,671.793 1318.81,643.04 1376.82,609.071 1483.69,528.82 1496.9,535.812 1364.18,629.88 1293.17,688.094 1337.87,630.979 1318.42,637.977 1339.82,631.053 1304.28,669.664 1243.24,702.236 1141.47,792.801 1130.63,783.598 1126.28,782.146 1170.83,731.738 1209.78,708.536 1244.14,695.638 1152.56,779.123 1166.32,757.522 1189.2,726.987 1168.79,751.592 1153.41,772.428 1119.71,793.66 1049.57,854.043 1071.17,824.721 1097.08,817.35 1118.2,789.219 1079.63,820.131 991.218,902.556 961.915,923.453 973.042,902.755 940.827,936.179 939.014,933.866 917.539,953.863 941.307,933.363 902.108,970.905 877.284,1002.31 865.074,1014.78 832.75,1056.48 825.692,1049.69 841.281,1034.6 861.072,1003.65 875.239,992.891 924.786,932.325 1004.66,859.107 984.74,898.16 1052.41,834.85 1022.88,854.563 1040.42,841.145 1096.67,789.013 1066.47,831.648 1036.59,846.479 1102.4,785.613 1152.36,754.316 1145.92,779.813 1191.14,726.266 1140.57,765.322 1142.17,762.316 1046.45,848.706 1047.58,837.09 1153.2,738.988 1228.68,693.92 1314.68,631.264 1268.01,683.056 1268.68,676.035 1383.98,621.605 1524.73,501.239 1611.54,441.483 1550.57,513.167 1523.51,525.897 1484.71,552.747 1475.33,562.788 1446.47,578.53 1379.76,618.461 1372.87,615.803 1354.51,627.349 1287.05,684.138 1253.66,705.447 1247.73,704.878 1232.71,708.982 1283.9,658.615 1298.25,649.739 1267.46,689.325 1252.99,704.63 1299.26,674.591 1230,718.751 1194.2,739.866 1344.79,598.422 1378.65,608.475 1361.77,630.72 1464.19,550.57 1352.16,640.778 1287.36,687.588 1303.66,675.303 1264.18,691.033 1233.89,709.908 1222.78,711.68 1201.5,734.881 1280.92,677.66 1271.44,683.975 1217.82,725.534 1173.97,757.853 1196.57,721.63 1216.26,707.49 1168.44,747.716 1175.18,745.761 1185.1,744.421 1161.94,741.277 1189.29,738.617 1217.95,715.699 1089.34,810.192 1087.14,814.43 1074.89,826.027 1043.8,852.386 1118.93,778.252 1089.83,808.483 1174.75,742.029 1193.73,732.939 1198.18,725.042 1181.01,735.5 1132.84,774.263 1116.75,782.613 1140.01,786.509 1193.65,727.06 1184.9,731.637 1311.27,637.342 1334.7,629.557 1410.27,574.441 1404.95,591.346 1434.17,572.098 1468.5,537.6 1427.92,586.545 1590.37,463.035 1607.26,469.283 1662.2,461.923 1624.48,487.746 1631.86,465.891 1503.52,562.778 1450.44,587.761 1371.19,645.284 1252.49,735.091 1226.94,739.107 1213.71,737.892 1123.47,815.673 1171.59,749.738 1154.67,760.438 1097.45,814.866 1069.91,836.312 1063.75,836.016 1068.36,818.655 1201.61,693.214 1223.9,692.489 1166.36,755.631 1178.94,739.077 1208.81,715.199 1222.32,701.39 1314.62,621.378 1345.5,619.665 1288.14,676.523 1256.82,700.347 1231.12,721.799 1270.26,680.909 1291.8,673.901 1304,656.984 1279.62,667.03 1282.83,660.329 1243.49,690.932 1252.94,686.873 1296.78,649.32 1204.15,728.662 1237.58,698.547 1275.69,672.414 1330.91,634.835 1271.68,686.447 1155.22,771.284 1195.24,727.145 1240.22,688.354 1262.82,687.616 1385.92,580.444 1393.97,591.604 1428.49,568.549 1365.39,621.321 1266.07,702.258 1193.62,746.915 1179.07,751.643 1134.37,788.657 1121.96,794.831 1088.73,810.749 1065,833.946 1041.85,863.802 1087.83,800.465 1153.8,759.342 1137.01,781.364 1141.87,769.656 1174.87,750.319 1195.8,725.832 1251.7,697.296 1201.44,736.557 1193.98,742.11 1271.49,656.637 1331.08,632.624 1369,598.678 1380.59,597.082 1403.02,579.434 1375.28,612.168 1333.36,651.132 1275.53,695.498 1269.93,692.251 1233.94,720.327 1301.74,652.484 1242.6,711.896 1228.12,715.519 1216.05,722.941 1269.33,666.097 1247.46,688.628 1198.79,728.849 1194.58,712.835 1231.9,693.395 1279.99,651.51 1350.8,602.794 1291.64,653.777 1342.08,617.571 1343.91,616.49 1293.19,658.061 1215.97,730.277 1304.15,649.596 1161.33,757.419 1139.15,773.07 1147.08,762.575 1237.72,684.35 1221.33,712.519 1148.3,770.731 1114.53,793.956 1205.33,727.591 1232.52,693.54 1154.39,768.189 1178.16,751.444 1092.01,821.864 1092.2,825.68 1102.55,806.465 1090.33,822.344 1030.15,866.262 997.852,897.701 984.758,902.534 1029.59,852.074 1121.27,762.507 1167.19,736.623 1242.56,674.776 1248.08,689.237 1178.14,755.277 1211.11,719.944 1135.31,774.499 1202.07,703.456 1192.15,716.827 1208.42,707.911 1227.31,703.693 1301.89,636.526 1228.15,707.098 1199.79,728.886 1096.97,817.214 1127.39,782.615 1160.62,742.499 1139.31,769.634 1152.7,755.319 1111.78,791.655 1025.75,874.052 1111.4,781.043 1085.81,805.766 1019.29,856.665 1113.09,772.548 1107.03,794.816 1137.95,761.37 1146.43,761.953 1099.59,812.78 1030.46,860.175 1060.11,819.916 1032.07,857.917 1011.83,879.711 1026.69,859.166 998.945,884.272 1042.09,848.583 1034.93,857.96 1078.12,812.803 1079.54,825.161 1173.24,740.886 1105.28,792.355 1134.89,769.472 1165.79,758.271 1195.27,710.867 1275.65,668.128 1286.2,656.75 1368.87,592.539 1409.17,567.667 1467.37,542.061 1418.1,595.449 1461.48,547.572 1480.58,538.389 1463.22,550.907 1535.86,512.754 1550.46,507.169 1497.38,529.384 1438.14,581.105 1357.21,635.343 1334.66,647.25 1359.34,617.63 1345.19,633.467 1372.38,611.503 1417.82,571.309 1436.27,566.974 1399.22,598.086 1454.03,556.336 1597.94,463.239 1597.85,471.298 1614.31,464.834 1569.53,507.797 1501.11,559.97 1399.38,634.85 1290.76,710.541 1233.19,735.005 1227.23,721.815 1228.15,716.155 1189.64,747.999 1153.74,775.336 1148.91,776.127 1097.6,824.32 1106.86,805.05 1073.09,829.733 1089.78,811.636 1109.56,796.719 1168.64,749.208 1166.09,756.816 1150.81,779.44 1086.64,837.878 1063.15,843.195 1047.9,848.462 1123.83,766.754 1059.69,825.439 1092.28,806.926 1114.26,786.111 1087.66,820.543 1093.25,810.345 1060.02,836.688 1064.95,835.486 1030.06,862.178 981.691,911.83 1002.83,892.011 957.919,926.178 1096.8,786.409 1174.94,725.416 1289.65,647.861 1425.54,548.603 1386.47,599.288 1450.54,534.668 1359.97,623.838 1348.14,621.454 1356.03,629.128 1270.04,699.426 1244.52,713.837 1318.07,653.708 1343.7,633.828 1291.42,671.438 1198.12,740.22 1334.18,611.109 1340.03,625.853 1372.63,617.53 1251.06,711.224 1213.95,738.42 1197.49,727.124 1248.06,677.578 1234.1,695.587 1209.79,723.377 1230.38,705.295 1199.99,731.968 1141.01,781.667 1155.15,749.751 1103.92,803.429 1161.09,765.85 1073.97,846.239 1122.38,797.441 1070.7,840.177 1043.83,858.59 1045.03,844.347 1003.34,873.709 1071.29,825.253 1141.68,757.681 1153.52,761.965 1170.99,753.102 1145.6,764.146 1269.2,676.918 1271.79,683.377 1168.87,769.412 1186.73,746.574 1145.89,775.37 1223.33,700.551 1278.94,657.644 1277.72,660.333 1274.26,670.923 1294.97,653.499 1376.58,598.136 1272.45,679.665 1290.19,669.646 1154.44,769.101 1124.52,794.574 1167.59,742.253 1196.75,724.167 1199.64,725.827 1216.89,719.679 1231.23,698.16 1179.68,745.137 1227.73,712.786 1164.6,775.282 1177.37,770.32 1215.51,736.83 1264.43,687.061 1360.96,597.075 1280.71,671.406 1416.17,567.704 1513.9,499.047 1504.06,507.329 1571.56,475.188 1452.75,573.248 1370.69,631.945 1310,665.993 1336.2,632.625 1278.71,672.299 1297.84,658.679 1262.38,684.268 1288.33,666.671 1330.36,626.349 1339.83,635.81 1323.33,642.749 1215.95,718.744 1250.27,682.413 1167,766.301 1171.1,758.903 1205.42,738.679 1264.51,715.567 1221.51,732.806 1271.2,683.595 1270.31,688.322 1281.83,700.234 1203.24,753.354 1206.24,739.084 1275.28,668.743 1286.57,670.839 1288.22,667.243 1273.11,684.444 1324.59,640.902 1310.93,660.331 1151.71,793.745 1205.72,722.429 1191.62,739.706 1153.01,771.506 1078.62,833.745 1094.08,812.876 1011.11,890.48 1026.41,866.535 1036.17,846.603 1048.81,836.297 1060.39,834.16 1052.73,846.19 1092.83,800.162 1165.09,736.056 1221.29,692.108 1216.07,714.703 1291.38,642.675 1281.29,686.737 1223.84,734.822 1206.91,734.717 1121.51,812.476 1048.56,862.628 1017.93,878.176 990.361,900.772 972.837,915.244 983.513,898.214 990.099,879.655 952.908,919.759 931.788,941.552 912.73,961.544 893.266,985.975 962.814,921.868 974.988,897.625 995.888,879.53 1029.43,846.524 998.056,877.743 1050.83,827.703 1078.89,811.739 1123.72,768.601 1062.69,829.531 1000.54,880.37 1129.05,762.176 1204.66,706.703 1221.7,705.828 1215.49,717.702 1160.61,757.985 1189.18,720.06 1211.66,724.731 1224.5,717.218 1370.03,594.516 1406.98,585.585 1381.51,610.567 1340.18,639.067 1342.63,632.849 1486.66,512.242 1605.37,444.613 1504.64,543.989 1452.71,575.819 1379.37,630.374 1322.31,668 1304.69,664.382 1278.32,689.772 1307.91,663.537 1347.3,629.996 1324.37,658.47 1236.68,712.36 1162.97,775.58 1131.92,790.699 1177.43,747.336 1074.86,843.267 1099.89,806.595 1143.73,756.345 1149.54,762.601 1132.72,780.356 1122.22,786.573 1143.83,766.168 1132.93,785.992 1140.4,778.488 1157.96,758.917 1233.94,696.763 1184.42,750.4 1141.19,787.666 1109.09,813.113 1083.8,836.691 1026.45,875.47 1061.48,826.509 1024.32,872.265 1054.87,835.492 1120.55,763.528 1150.98,747.62 1146.66,757.95 1187.33,725.579 1249.91,673.354 1302.06,638.034 1301.73,655.841 1318.15,646.51 1239.17,724.767 1240.12,723.205 1200.65,736.851 1287.5,653.519 1321.61,637.959 1345.12,623.471 1247.64,707.755 1274.28,678.252 1269.69,674.651 1200.78,729.009 1231.79,702.298 1370.83,609.037 1445.57,550.936 1342.76,650.513 1288.49,674.108 1222.13,730.317 1200.7,743.967 1233.49,706.225 1216.93,720.034 1249.54,696.016 1187.12,750.384 1194.56,733.749 1236.98,717.114 1148.2,780.798 1107.47,813.973 1080.13,826.185 1106.85,804.667 1147.41,770.584 1197.77,729.448 1246.84,686.775 1131.92,785.636 1153.65,772.016 1183.9,741.345 1181.73,738.408 1157.87,740.803 1209.22,689.337 1218.53,700.592 1235.97,691.866 1370.89,607.863 1403.66,592.728 1332.6,630.986 1272.75,689.837 1246.97,706.024 1230.24,706.975 1268.37,693.333 1217.89,732.251 1344.18,616.095 1280.72,666.396 1164.59,754.499 1094.88,827.706 1016.35,894.442 1044.25,849.028 1015.42,879.962 968.616,923.306 1039.76,845.785 1000.58,885.535 1019.06,863.962 930.185,949.62 933.635,945.795 984.003,894.475 987.084,886.824 1026.48,852.222 1026.73,868.949 1032.88,860.579 1103.87,793.439 1202.37,707.213 1312.92,635.426 1317.62,649.061 1369.13,605.767 1371.32,612.629 1232.92,711.708 1176.29,762.348 1168.66,754.512 1192.78,727.268 1258.25,667.398 1316.12,626.493 1389.6,582.45 1350.52,620.379 1318.7,662.227 1372.88,621.928 1385.24,597.1 1305.54,653.939 1299.11,655.72 1273.76,679.242 1257.19,698.726 1279.66,668.533 1389.12,602.079 1341.2,633.295 1324.33,633.905 1267.04,679.541 1233.23,705.302 1400.81,587.776 1475.39,531.313 1303.19,668.457 1192.68,761.837 1200.89,732.264 1424.53,541.126 1442.15,562.698 1413.89,576.442 1338.77,628.853 1279.88,681.638 1211.12,735.686 1199.84,735.436 1329.21,624.038 1273.26,682.148 1268.89,693.154 1158.07,771.757 1146.93,777.034 1134.09,783.648 1103.47,803.325 1064.22,842.224 1024.09,878.146 1068.16,830.145 1114.14,789.197 1098.87,800.532 1155.84,758.955 1338.59,595.757 1369.53,595.227 1351.13,627.479 1266.35,693.464 1248.53,698.122 1297.3,657.048 1231.44,723.957 1165.27,766.687 1170.26,751.992 1208.89,714.125 1187.31,733.422 1241.2,697.648 1232.2,708.325 1256.82,691.949 1214.88,721.182 1212.1,724.365 1270.27,665.779 1250.86,686.321 1283.5,671.704 1309.51,658.055 1287.08,672.84 1337.54,622.91 1266.44,698.974 1329.42,639.815 1277.51,686.894 1318.43,637.976 1220.99,701.258 1309.83,634.379 1304.85,643.808 1215.64,716.95 1173.4,761.249 1251.33,693.474 1279.97,673.005 1292.12,658.051 1202.92,704.251 1160.04,745.915 1251.84,703.187 1264.81,689.22 1385.43,596.774 1328.8,647.544 1342.05,628.025 1345.09,623.945 1437.24,547.632 1398.66,609.74 1326.79,654.488 1309.44,669.439 1304.12,661.139 1327.41,642.168 1253.69,695.043 1233.49,711.514 1197.86,730.352 1179.75,742.088 1228.96,698.063 1180.08,745.151 1209.57,727.527 1119.72,806.674 1146.67,766.364 1168.22,751.685 1163.56,748.315 1185.58,741.658 1256.89,685.202 1237.61,699.724 1259.96,691.9 1337.9,634.971 1154.22,778.407 1122.89,797.435 1166.24,744.319 1172.62,753.39 1220.61,717.592 1319.85,651.829 1160.72,787.365 1178.73,753.438 1227.63,708.573 1293.06,651.853 1232.08,715.482 1317.5,650.968 1252.46,696.994 1250.51,709.771 1240.01,727.663 1198.88,743.326 1164.68,767.632 1090.05,824.47 1042.63,860.84 1069.62,821.049 1111.13,778.6 1250.04,671.215 1306.74,631.013 1329.22,634.11 1347.96,626.737 1234.85,719.962 1193.67,748.455 1144.44,790.724 1123.71,792.847 1093.98,820.35 1053.68,850.861 1072.71,816.077 1082.12,808.125 1072.88,826.961 1138.59,767.839 1173.27,740.332 1221.41,677.949 1171.62,734.461 1139.74,768.505 1091.9,819.241 1112.64,805.752 1072.35,845.511 1012.43,881.853 1006.46,887.556 974.621,915.008 942.202,943.285 925.22,957.527 949.485,920.316 944.644,925.452 960.902,904.98 977.035,892.462 993.274,888.62 948.756,937.727 973.937,904.611 962.357,923.396 1070.67,804.297 1100.58,783.088 1139.49,755.434 1150.61,753.402 1306.67,626.195 1383.52,567.591 1456.49,552.043 1532.42,499.702 1541.96,509.091 1390.05,631.594 1360.12,642.326 1336.96,648.449 1360.85,616.713 1233.2,725.412 1186.83,762.88 1165.93,760.441 1151.14,769.834 1179.45,732.879 1135.59,785.136 1106.4,804.68 1098.54,807.043 1088.58,810.337 1060.52,830.029 1070.62,816.043 1147.7,757.06 1121.85,786.992 1074.17,837.154 1062.16,844.272 1110.02,797.537 1144.1,759.455 1117.26,793.599 1163.3,749.193 1127.94,782.651 1209.61,725.68 1203.9,733.625 1177.74,746.867 1172.06,748.526 1123.14,791.389 1090.27,815.826 1117.85,796.815 977.349,916.734 934.943,950.945 972.936,899.518 1052.39,824.369 1013.61,876.707 1086.86,795.178 1070.45,835.398 1025.65,872.36 1004.53,882.948 1037.41,851.693 1027.77,853.544 1093.9,789.897 1090.25,807.532 1162.4,743.372 1307.04,637.471 1272.8,689.916 1226.99,733.057 1179.14,762.669 1112.51,812.897 1193.62,714.155 1140.84,782.771 1134.58,773.541 1126.05,788.21 1088.75,809.892 1061.8,837.367 1060.69,834.687 1126.52,764.238 1069.21,830.44 1049.95,854.767 965.64,919.175 916.597,963.813 969.683,903.057 897.444,984.101 852.32,1021.08 824.143,1052.06 786.481,1089.69 812.231,1056.8 796.527,1067.9 801.209,1066.33 799.515,1067.72 821.631,1041.15 854.321,1006.62 803.368,1071.43 869.356,989.3 874.955,984.7 929.631,931.452 968.925,895.549 976.559,892.898 1062.7,813.423 1093.06,791.372 1098.6,799.223 1116.4,785.549 1090.65,813.17 1109.47,792.913 1074.57,820.391 1058.05,836.056 1143.87,772.859 1199.43,726.288 1052.9,860.28 1045.94,851.478 1037.11,858.662 1049.5,856.969 1098.49,809.821 1043.13,855.164 1074.61,816.747 1137.25,757.282 1159.77,757.992 1114.06,792.575 1193,720.832 1325.34,623.771 1278.12,676.101 1260.53,696.027 1209.76,739.787 1213.29,723.387 1235.52,704.923 1122.96,788.393 1144.61,763.229 1189.51,724.03 1153.69,760.533 1193.49,728.318 1199.51,726.701 1176.83,751.216 1244.48,691.92 1279.39,656.046 1319.82,626.484 1319.83,634.973 1366.31,598.502 1370.56,604.707 1321.06,653.563 1232.4,724.625 1178.31,765.514 1151.88,781.381 1070.51,852.26 1081.44,826.862 1089.34,814.367 1074.05,826.512 1082.32,816.232 1094.97,806.807 1193.94,720.552 1208.02,715.48 1193.81,732.995 1177.53,737.728 1205.16,713.897 1109.17,794.602 1126.7,775.374 1266.85,645.854 1226.14,692.888 1273.88,653.893 1234.11,690.615 1182.18,749.963 1183.11,733.254 1297.23,639.469 1282.81,652.853 1291.47,635.343 1186.62,721.397 1242.26,687.309 1354.33,621.019 1349.83,623.565 1290.87,656.985 1325.94,633.457 1489.31,534.193 1405.56,599.359 1288.71,681.881 1256.78,712.259 1284.28,685.329 1228.61,732.853 1212.9,726.332 1187.11,738.988 1092.28,819.784 1120.86,784.224 1118.84,789.5 1080.29,824.2 1077.18,823.929 971.646,918.305 1002.41,876.699 1033.1,842.23 1054.06,833.754 1083.89,804.295 1042.4,851.377 977.387,906.88 971.543,905.611 1003,879.133 1095.68,792.715 1181.62,724.227 1169.48,745.769 1206.43,717.52 1212.47,717.545 1203.21,721.226 1058.32,835.36 1057.33,830.333 1080.48,803.957 1138.74,751.513 1104.85,793.821 1081.46,819.192 1097.02,807.195 1124.84,779.295 1138.81,779.53 1181.38,740.161 1097.02,819.031 1224.36,704.311 1283.27,669.606 1324.94,638.202 1271.58,672.068 1238.94,698.805 1216.33,700.316 1214.48,710.506 1209.38,732.564 1223.24,708.702 1299.34,660.026 1262.49,682.722 1252.59,705.291 1336.26,638.591 1266.49,683.883 1232.43,709.176 1155.86,774.38 1169.06,749.072 1058.56,827.199 1121.22,760.93 1139.89,748.622 1121.84,775.367 1217.87,692.566 1309.97,645.11 1310.45,659.72 1351.39,618.213 1446.79,569.627 1531.34,491.187 1601.47,449.982 1521.89,536.65 1463.92,570.072 1515.95,521.126 1523.56,520.833 1435.32,595.114 1407.14,611.429 1378.43,622.041 1395.54,600.651 1290.57,683.007 1245.54,712.287 1262.41,689.765 1250.52,698.165 1133.25,802.153 1080.57,841.406 1115.93,796.363 1095.78,807.186 1077.14,819.149 1093.93,816.582 1139.78,759.824 1229.56,702.323 1290.25,645.338 1362.9,589.411 1502.66,477.037 1514.24,498.328 1484.29,540.008 1467.82,558.153 1405.82,610.902 1400.22,607.566 1289.17,694.39 1173.97,789.148 1139,801.961 1147.88,783.54 1153.46,767.638 1133.67,780.257 1148.79,766.447 1149.02,762.712 1103.64,802.41 1106.52,794.635 1120.21,782.144 1145.16,754.618 1166.82,746.813 1265.12,675.64 1281.46,679.041 1258.25,689.948 1309.64,665.436 1161.55,778.009 1182.81,742.338 1148.43,771.258 1075.75,838.143 1070.71,837.421 1091.14,813.991 1087.07,807.239 1093.88,800.037 1148.42,751.819 1171.71,748.711 1116.65,804.317 1071.63,842.148 1060.77,852.351 946.161,952.938 935.346,952.784 955.804,920.055 968.446,904.159 954.267,922.895 1003.99,872.903 1111.03,774.317 1059.59,836.914 1047.61,844.065 1093.3,796.618 1130.08,768.548 1052.14,848.566 1013.23,881.068 1042.57,851.227 1125.49,776.752 1160.93,751.28 1208.01,717.399 1197.78,724.137 1271.44,669.576 1314.7,635.204 1373.99,598.582 1328.13,641.345 1292.15,676.864 1319.07,653.64 1310.27,659.272 1178.84,760.923 1210.67,703.594 1229.29,701.263 1191.61,732.877 1183.16,733.597 1128.15,783.482 1165.31,737.871 1178.56,729.48 1053.19,832.845 1153.18,749.537 1138.66,771.526 1141.26,776.841 1162.03,769.504 1158.2,789.487 1284.81,668.106 1264.69,664.949 1226.33,689.923 1153.72,711.205 1167.7,688.484 1136.04,713.366 1126.23,763.182 1232.82,666.448 1208.63,709.366 1201.44,727.645 1218.21,712.495 1254.13,674.571 1213.85,727.735 1216.4,719.099 1203.63,730.478 1282.27,668.637 1284.23,669.213 1267.35,679.137 1169.3,763.266 1197.07,730.595 1157.36,765.158 1166.2,743.312 1082.01,824.399 1013.35,884.174 964.182,923.685 1041.9,839.288 1036.24,849.931 1021.84,870.266 981.063,893.127 982.74,904.823 1004.97,879.038 1003.29,878.98 986.813,889.903 1005.09,867.656 1018.03,867.496 978.311,900.773 962.668,914.343 939.562,938.275 962.294,914.17 1040.71,840.608 1017.78,871.244 998.254,880.539 1039.28,857.841 1058.56,836.963 958.472,921.809 1035.23,842.401 1001.75,877.643 998.372,878.225 1023.13,859.737 1012.47,879.247 1006.82,881.865 1052.47,835.87 1068.43,833.776 1103.99,794.788 1140.59,782.432 1192.21,725.546 1129.1,793.569 1076.79,832.896 946.699,946.7 964.611,913.95 998.759,872.619 928,948.787 966.952,914.876 955.648,934.82 970.834,899.513 981.583,890.913 1030.57,845.871 1005.12,888.459 931.758,953.19 904.955,975.333 851.252,1017.3 871.819,993.466 889.67,961.043 912.645,946.968 957.659,907.932 941.225,930.154 984.5,887.606 938.243,937.45 981.429,892.072 978.926,896.496 1035.91,841.094 949.837,934.081 920.666,953.439 953.855,917.688 1068.43,808.597 1070.41,814.584 1082.93,812.93 1067.86,837.71 1071.04,839.655 1101.8,797.942 1126.64,798.437 1100.52,812.69 1206.84,713.619 1239.01,713.658 1227.14,711.313 1375.78,601.676 1361.87,617.907 1427.86,564.102 1453.96,564.382 1362.65,632.222 1296.84,675.972 1206.58,741.479 1220.85,709.234 1302.45,636.479 1433.61,553.602 1438.02,569.168 1512.71,513.143 1423.65,582.914 1417.88,584.251 1374.5,611.761 1283.36,695.652 1194.2,767.914 1162.74,775.169 1153.12,779.497 1182.94,731.245 1084.13,831.534 1063.2,843.184 1060.64,835.999 1070.8,829.709 1157.64,741.109 1155.55,759.962 1122.67,788.87 1095.77,807.391 1131.16,769.772 1194.25,710.231 1229.64,698.168 1206.88,726.102 1248.77,683.717 1172.76,756.145 1140.14,777.218 1201.96,719.844 1184.45,743.854 1243.94,691.315 1149.6,776.183 1170.65,768.219 1108.79,816.232 1053.72,859.921 1096.3,802.425 1094.96,813.771 1057.83,843.772 1130.22,767.842 1072.99,820.79 973.277,894.069 1020.84,848.166 1071.89,815.038 1057.69,836.144 1082.33,812.432 1199.32,723.763 1131.25,789.483 1180.71,751.667 1187.57,747.787 1138.28,776.199 1184.25,729.774 1192.87,732.907 1240.69,685.978 1223.16,715.476 1186.75,747.727 1117.51,802.216 1108.85,801.533 1124.07,782.801 1253.23,651.976 1289.37,646.47 1306.12,643.308 1331.72,628.747 1350.75,622.663 1373.52,599.254 1314.27,667.685 1274.69,689.415 1241.43,715.578 1254.26,698.963 1202.67,736.991 1214.23,721.035 1149.72,775.021 1162.56,751.155 1195.46,722.237 1193.39,731.499 1173.22,751.533 1170.62,762.334 1117.58,801.077 1124.09,784.809 1122.43,788.25 1112.25,795.126 1154.89,752.904 1146.28,763.591 1096.82,807.398 1114.56,804.213 1208.11,749.855 1152.94,778.389 1182.47,733.154 1071.87,847.395 1153.16,766.313 1133.42,789.26 1230.53,698.357 1190.61,725.553 1226.94,708.267 1124.14,797.729 1117.24,790.783 1116.94,802.803 1194.83,738.289 1160.93,765.137 1147.2,766.814 1224.03,701.404 1217.76,707.804 1123.46,789.075 1056.3,829.4 1123.97,786.134 1028.55,865.066 1002.57,874.015 1090.67,801.232 1070.63,830.735 1047.33,849.328 992.408,898.939 933.586,952.445 875.16,1002.17 848.439,1021.52 858.899,1007.41 881.318,983.221 852.866,1019.82 877.029,989.289 871.875,997.873 917.433,950.055 889.419,977.44 894.992,967.264 937.289,920.392 936.865,927.676 943.126,923.409 982.594,890.002 1019.05,853.259 1055.16,830.293 1049.95,842.842 1088.19,803.273 1067.99,816.06 1083.44,820.127 1089.99,808.113 1140.41,770.94 1255.73,672.602 1273.15,676.094 1268.45,687.875 1219.23,726.818 1160.22,781.094 1165.18,772.982 1204.65,733.761 1291.33,679.758 1265.51,696.899 1232.16,714.093 1163.97,775.261 1114.18,811.86 1114.79,791.294 1069.32,838.42 1077.4,827.808 1085.61,817.148 1104.61,802.743 1040.61,856.09 1092.67,804.27 1095.8,798.178 1161.97,744.074 1356.92,572.345 1416.89,554.31 1455.19,542.534 1417.4,588.74 1359,647.124 1235.05,741.16 1207.39,752.258 1279.48,668.403 1284.76,670.989 1317.25,647.35 1361.2,598.634 1218.71,719.509 1102.03,809.335 1096.77,809.166 1096.11,805.77 1170.56,746.273 1136.47,781.228 1117.61,797.685 1115.13,789.027 1092.28,811.692 1094.41,808.156 1136.71,768.961 1068.81,823.246 1127.79,767.816 1190.03,748.044 1215.55,719.377 1233.04,708.776 1230.36,713.034 1149.86,771.955 1189.17,725.161 1280.21,647.304 1273.03,667.315 1222.81,721.407 1206.22,735.382 1213.36,720.034 1181.4,751.737 1182.72,742.668 1182.6,745.119 1128.33,783.883 1081.48,830.285 1062.29,841.931 1031.39,868.586 1062.06,827.804 1067.45,827.401 1089.01,801.009 1089.37,813.391 1080.82,824.095 1028.07,873.438 988.953,904.108 1006.95,884.531 974.783,909.959 935.38,949.208 925.373,958.783 996.173,876.699 975.717,907.807 963.432,918.06 1079.12,797.007 1127.32,778.034 1104.11,810.504 1076.76,835.581 1008.58,889.245 990.322,900.676 1007.45,883.548 1103.03,786.263 1100.69,806.247 1057.77,840.707 1065.57,829.336 1099.26,793.211 1127.97,765.484 1152.22,751.509 1107.57,798.679 1206.91,696.128 1204.82,720.81 1141.32,783.658 990.09,917.95 965.778,928.855 961.841,919.846 957.161,923.017 935.509,942.288 944.147,934.534 940.112,928.541 1005.94,859.671 1030.16,848.833 1018.58,864.09 1091.41,794.88 1084.87,810.908 1079.92,824.66 1015.76,883.717 962.227,929.122 970.495,906.181 1014.77,872.095 1030.06,861.005 991.368,892.142 973.159,910.837 962.3,909.675 984.26,882.572 1070.23,807.798 1105.79,780.19 1140.98,759.333 1164.01,739.796 1224.01,702.057 1190.93,747.265 1167.43,764.933 1251.26,691.793 1297.39,648.089 1365.3,617.496 1362.29,626.231 1262.46,707.237 1273.14,694.45 1247.56,706.824 1210.83,752.875 1189.1,742.837 1221.55,703.479 1202.05,729.164 1192.18,736.676 1173.81,747.648 1159.1,755.487 1142.72,778.767 1102,812.62 1105.15,803.51 1100.69,801.247 1059.67,841.29 1112.35,783.52 1099.07,787.365 1129.82,782.577 1201.86,704.495 1280.6,646.928 1278.98,667.772 1262.17,697.783 1243.85,714.844 1189.22,760.601 1133.83,810.473 1164.54,761.132 1183.79,748.874 1277.35,656.038 1322.11,643.05 1391.69,587.431 1373.4,620.708 1376.53,615.263 1464.62,533.507 1387.58,620.778 1367.69,643.502 1372.41,627.854 1337.28,656.122 1316.63,663.219 1369.77,614.461 1388.11,606.248 1352.93,616.145 1399.12,588.565 1368.57,616.984 1265,709.847 1366.52,603.51 1356.51,611.531 1324,635.367 1304.51,635.746 1252.21,697.592 1192.07,746.341 1188.82,746.991 1260.26,670.47 1307.42,645.355 1247.93,710.43 1223.53,710.324 1151.11,775.548 1183.89,741.057 1128.35,793.739 1151.1,764.013 1157.85,760.93 1102.34,808.739 1077.77,826.152 1120.92,783.249 1042.2,863.58 1020.61,869.608 1018.05,867.09 967.923,918.512 962.712,923.698 979.758,899.43 962.606,915.315 986.183,903.913 987.55,894.929 900.439,974.136 881.767,993.563 866.355,1001.39 880.114,986.384 859.922,1002.91 906.046,952.215 923.598,945.876 960.984,914.543 970.274,907.744 912.972,964.712 885.319,989.799 898.819,962.92 896.946,964.981 939.913,934.107 930.653,938.044 930.056,933.68 959.82,914.9 954.104,918.691 923.548,952.725 976.283,901.809 1003.59,871.189 888.783,987.946 917.908,955.202 941.482,938.261 961.13,919.213 1010.42,857.094 1014.15,860.849 1049.6,832.711 1022.84,861.761 1144.81,758.299 1298,632.081 1238.83,688.59 1328.7,644.025 1405.17,574.769 1353.4,633.681 1435.29,554.378 1410.69,573.203 1298.89,666.953 1250,711.452 1194.59,750.796 1155.95,777.103 1130.05,793.434 1068.64,841.716 1146.54,758.101 1162.78,741.626 1075.43,817.948 1043.9,843.968 1157.96,726.163 1224.61,686.39 1219.71,711.336 1248.26,689.549 1245.76,690.872 1228.95,702.69 1325.98,622.473 1265.87,687.647 1221.82,723.006 1201.67,734.096 1170.74,762.634 1155.47,780.8 1166.4,773.13 1159.6,779.252 1236.18,724.616 1299.59,677.16 1423.41,589.016 1250.52,718.199 1204.98,737.929 1235.29,700.29 1213.29,715.069 1302.81,649.772 1331.34,625.043 1380.57,600.807 1302.64,663.333 1471.63,530.019 1436.65,584.785 1419.4,590.556 1383.5,622.179 1331.29,644.986 1292.11,671.986 1245.29,714.106 1213.13,737.737 1229.24,707.579 1163.14,761.694 1252.04,674.462 1329.73,634.033 1334.33,631.008 1392,582.16 1396.24,587.546 1420.65,588.56 1396.49,603.196 1399.81,596.631 1367.97,632.879 1329.42,646.048 1249.8,705.889 1343.6,608.061 1290.25,674.033 1300.47,662.338 1240.92,706.64 1282.9,680.607 1266.2,682.919 1321.76,636.087 1319.78,637.913 1314.08,644.882 1303.74,657.249 1319.35,630.897 1413.42,574.258 1444.27,552.227 1369.36,613.699 1358.65,617.513 1431.29,573.197 1369.21,624.854 1351.65,629.117 1226.6,726.964 1154.18,779.797 1169.95,751.734 1132.27,781.451 1155.61,751.982 1192.45,734.59 1107.69,804.246 1120.02,796.014 1195.57,741.434 1142.18,788.979 1094.06,822.625 1103.77,803.246 1110.56,792.613 1204.16,709.047 1286.18,645.73 1299.89,658.554 1324.06,645.527 1250.78,715.672 1363.76,593.795 1387.92,588.298 1339.37,648.953 1330.49,644.674 1410.02,559.877 1452.27,549.489 1363.85,640.812 1304.66,673.056 1353.29,622.861 1300.48,668.941 1187.4,762.746 1235.12,702.996 1208.26,729.44 1201.68,731.726 1178.37,753.318 1090.64,826.183 1063.73,843.213 1111.38,792.081 1142.89,775.936 1159.15,764.184 1119.7,804.034 1148.32,767.208 1110.96,806.834 1035.45,867.585 1040.69,855.039 1033.92,859.262 1039.93,847.2 968.868,923.21 956.269,927.685 1010.88,857.226 1038.94,837.433 1038.58,844.212 1080.16,811.216 1117.93,785.42 1062.55,839.008 1091.77,804.578 1094.83,797.72 1037.61,850.517 1062.35,828.109 1157.42,746.694 1265.34,649.825 1261.59,673.277 1325.66,623.266 1331.09,618.899 1368.31,599.46 1448.09,552.217 1454.96,560.817 1435.29,593.802 1592.98,477.166 1615.17,482.1 1546.16,518.894 1582.09,481.734 1505.46,538.073 1503.09,529.339 1399.55,615.578 1327.29,660.401 1349.46,627.664 1264.89,706.098 1286.18,677.401 1298.62,658.356 1271.94,682.125 1279.89,674.882 1256.89,694.125 1287.59,668.594 1290.35,660.877 1279.33,687.543 1378.87,609.27 1270.59,674.991 1214.59,718.516 1217.25,714.422 1129.64,792.997 1132.56,780.982 1099.1,808.388 1038.42,855.433 1058.81,827.355 1106.58,776.172 1135.78,748.862 1253.87,661.158 1339.72,600.258 1351.89,625.581 1400.9,583.814 1350.76,642.627 1324.17,663.373 1364.26,615.823 1375.16,602.712 1343.62,636.371 1423.68,594.004 1320.35,669.33 1378.82,617.116 1290.53,678.661 1303.95,661.544 1302.77,656.95 1354.17,618.936 1262.52,693.32 1267.98,680.69 1254.41,683.934 1289.54,650.282 1296.52,671.696 1415.93,567.23 1440.82,558.559 1567.52,475.778 1598.54,461.65 1596.48,475.335 1440.05,597.055 1479.8,552.296 1548.84,501.245 1575.37,477.672 1460.36,579.235 1487.78,540.877 1524.39,523.139 1488.1,556.584 1460.28,580.272 1425.71,597.366 1448.23,565.278 1498.4,520.635 1338.61,660.383 1294.7,682.055 1203.54,751.121 1212.32,725.785 1228.07,709.961 1315.07,624.597 1405.49,580.659 1456.67,547.255 1384.36,619.619 1382.99,607.882 1321.77,655.184 1346.77,619.263 1237.75,721.254 1291.09,665.403 1231.03,714.084 1271.81,670.153 1335.3,621.956 1280.05,669.175 1361.75,621.898 1326.3,656.808 1272.53,693.657 1293.17,668.945 1293.09,667.45 1310.15,651.791 1224.66,722.254 1198.02,748.465 1238.69,710.835 1234.56,704.292 1179.12,747.552 1052.65,861.972 1049.31,850.567 1085.34,800.634 1099.22,796.943 1012.73,880.456 989.045,901.664 996.059,891.442 993.099,894.5 949.281,933.979 985.307,894.998 1020.85,853.913 1098.72,794.356 1131.87,776.543 1130.64,776.401 1059.63,846.624 1081.6,827.869 980.7,913.956 997.158,898.885 1014.07,879.636 923.668,959.243 969.17,901.246 1008.72,871.687 1026.61,856.78 1078.29,814.607 1104.57,783.453 1090.08,807.326 939.26,949.758 922.533,968.5 926.609,951.207 949.933,930.141 935.089,933.333 922.553,950.136 893.121,979.111 844.738,1026.48 902.482,951.776 939.908,923.534 927.066,949.722 933.691,941.466 931.584,941.563 944.546,922.262 986.226,892.497 968.529,915.313 921.456,964.924 962.442,917.029 1075.62,807.701 1103,784.966 1079.58,819.02 1093.63,807.337 1116.58,788.722 1182.3,731.301 1228.87,694.127 1223.98,713.399 1300.46,664.617 1241.13,709.356 1156.09,774.806 1102.2,807.223 1002.49,890.256 972.676,912.1 998.228,893.388 934.176,945.492 965.377,910.697 972.921,899.89 962.743,918.318 960.756,913.838 1009.5,865.857 1090.16,806.615 1061.03,834.713 1069.97,829.357 1068.8,826.943 1120.96,797.593 1121.51,793.807 1070.46,839.758 1052.95,845.889 995.832,892.689 1042.1,844.335 1050.36,848.547 1082.36,823.694 1049.12,845.442 997.495,890.051 1088.78,805.201 1164.24,733.738 1099.5,794.033 1165.99,750.145 1121.94,792.829 1250.44,691.092 1294.63,663.212 1369.95,604.944 1404.24,578.45 1353.03,625.948 1335.05,635.474 1329.28,647.876 1256.33,685.736 1324.32,642.024 1322.43,645.656 1335.64,637.292 1345.14,620.319 1367.67,620.084 1331.41,643.984 1383.82,592.167 1229.72,712.032 1254.13,684.339 1300.87,650.138 1336.1,622.459 1438.79,564.498 1436.24,571.331 1327.03,659.244 1245.99,719.113 1261.14,693.914 1199.06,738.169 1120.83,805.085 1069.18,837.001 1029.57,870.739 1050.76,844.073 1068.53,816.796 1126.5,771.616 1151.28,757.328 1121.5,787.667 1092.59,814.617 1057.04,854.318 1023.57,879.697 997.676,898.66 971.553,919.015 1005.7,898.965 1049.85,835.513 1147.97,761.373 1073.26,830.722 1074.76,821.844 1051.89,847.936 1069.58,832.032 1059.68,854.174 1115.34,791.117 1159.67,758.088 1161.22,759.416 1176.31,735.68 1072.6,810.839 1058.74,830.33 1058.81,836.084 1044.95,836.68 915.842,933.471 940.193,922.365 993.419,874.353 970.773,890.528 1084.63,790.008 1135.46,756.212 1117.01,779.512 1115.87,793.294 1206.73,717.638 1204.19,721.33 1241.09,701.667 1255.65,676.297 1233.09,709.609 1405.75,576.047 1395.12,600.995 1393.09,593.309 1457.06,541.321 1373.22,585.598 1385.59,605.286 1370.4,602.014 1373.76,607.903 1351.68,627.248 1235.06,718.563 1192.42,748.751 1124.47,788.262 1144.73,761.338 1137.41,758.678 1157.97,748.423 1285.85,650.79 1254.56,693.953 1269.22,691.576 1176.91,766.025 1175.54,748.459 1183.31,735.778 1184.94,739.934 1167.52,747.748 1144.42,763.011 1251.85,671.84 1186.28,729.446 1244.13,680.209 1265.46,678.7 1271.19,667.004 1265.98,681.394 1221.68,724.429 1198.63,745.876 1232.03,701.795 1100.53,816.366 1047.33,860.273 1019.07,872.946 986.445,898.139 955.84,925.845 1024.89,857.799 1058.69,814.41 1175.44,724.993 1244.64,673.454 1325.69,622.266 1327.22,641.829 1377.47,600.723 1359.16,611.09 1346.09,618.966 1349.18,648.331 1391.74,603.021 1377.69,639.663 1382.12,621.197 1292.18,679.761 1179.42,770.598 1111.89,817.247 1130.05,787.269 1170.07,743.838 1138.29,768.898 1069.32,828.73 1082.11,819.197 1108.06,782.186 1100.25,795.066 1080.52,812.63 1089.68,827.029 1144.83,767.12 1198.65,734.126 1204.48,720.801 1335.75,625.663 1285.19,681.097 1208.54,743.945 1249.86,693.48 1257.85,688.923 1181.07,766.083 1166.66,762.668 1214.89,705.746 1195.05,730.262 1213.76,710.724 1279.72,660.036 1279.16,668.256 1265.01,682.877 1271.45,676.448 1255.32,695.884 1216.1,721.363 1175.74,759.119 1178.8,751.371 1211.66,718.07 1224.65,703.049 1214.9,714.883 1208.07,714.687 1251.07,680.788 1326.29,621.797 1434.16,548.99 1363.9,622.518 1274.09,695.945 1323.99,636.824 1358.81,604.426 1435.27,565.701 1459.56,549.047 1478.97,545.77 1529.2,515.935 1373.47,639.347 1394.33,604.812 1298.93,686.336 1208.81,751.329 1133.51,806.198 1131.12,796.157 1135.05,785.709 1142.05,776.591 1112.86,798.429 1106.81,801.364 1158.35,752.542 1159.97,755.136 1116.1,804.259 1125.31,792.27 1165.93,758.204 1252.84,670.763 1252.6,656.351 1080.23,777.411 1072.39,801.75 1043.25,826.603 1010.66,863.787 977.447,897.092 989.867,887.011 954.498,918.738 1026.38,842.782 1089.85,785.159 1123.47,769.194 1181.36,726.478 1158.29,748.582 1120.21,782.992 1093.37,811.426 1060.4,842.255 1085.32,810.612 1118.26,789.709 1100.3,796.339 1010.6,865.548 1033.58,856.05 1010.43,884.387 1042.39,847.663 1091.64,811.535 1037.72,869.481 1013.57,881.637 976.474,912.359 977.804,901.984 1016.09,877.236 1022.33,865.475 966.721,920.983 962.688,922.177 991.946,879.118 977.068,901.592 1010.2,875.991 942.794,936.493 921.531,957.345 878.43,1004.06 830.474,1041.15 817.54,1050.36 841.345,1026.28 855.479,1010.64 871.509,997.811 880.635,992.477 892.951,976.498 880.636,984.675 922.003,949.16 930.448,945.138 957.477,904.105 1001.33,870.93 1041.09,846.721 1118.43,791.438 1080.98,833.7 1172.32,737.194 1114.7,799.16 1107.21,795.486 1010.52,871.301 1053.11,825.469 1020.48,856.288 1046.31,835.403 985.723,889.393 1027.78,846.796 1021.67,868.823 1036.74,849.395 "/>
<path clip-path="url(#clip630)" d="M186.863 198.898 L550.897 198.898 L550.897 95.2176 L186.863 95.2176  Z" fill="#ffffff" fill-rule="evenodd" fill-opacity="1"/>
<polyline clip-path="url(#clip630)" style="stroke:#000000; stroke-linecap:round; stroke-linejoin:round; stroke-width:4; stroke-opacity:1; fill:none" points="186.863,198.898 550.897,198.898 550.897,95.2176 186.863,95.2176 186.863,198.898 "/>
<polyline clip-path="url(#clip630)" style="stroke:#009af9; stroke-linecap:round; stroke-linejoin:round; stroke-width:4; stroke-opacity:1; fill:none" points="211.758,147.058 361.13,147.058 "/>
<path clip-path="url(#clip630)" d="M396.651 128.366 Q393.549 133.69 392.044 138.898 Q390.54 144.106 390.54 149.453 Q390.54 154.801 392.044 160.055 Q393.572 165.287 396.651 170.588 L392.947 170.588 Q389.475 165.148 387.739 159.893 Q386.026 154.639 386.026 149.453 Q386.026 144.291 387.739 139.06 Q389.452 133.828 392.947 128.366 L396.651 128.366 Z" fill="#000000" fill-rule="nonzero" fill-opacity="1" /><path clip-path="url(#clip630)" d="M403.063 138.412 L423.294 138.412 L423.294 142.301 L407.276 160.935 L423.294 160.935 L423.294 164.338 L402.484 164.338 L402.484 160.449 L418.502 141.815 L403.063 141.815 L403.063 138.412 Z" fill="#000000" fill-rule="nonzero" fill-opacity="1" /><path clip-path="url(#clip630)" d="M430.887 158.458 L435.771 158.458 L435.771 162.439 L431.975 169.847 L428.988 169.847 L430.887 162.439 L430.887 158.458 Z" fill="#000000" fill-rule="nonzero" fill-opacity="1" /><path clip-path="url(#clip630)" d="M455.655 166.745 Q453.849 171.375 452.136 172.787 Q450.423 174.199 447.553 174.199 L444.15 174.199 L444.15 170.634 L446.65 170.634 Q448.41 170.634 449.382 169.8 Q450.354 168.967 451.535 165.865 L452.298 163.921 L441.812 138.412 L446.326 138.412 L454.428 158.689 L462.53 138.412 L467.044 138.412 L455.655 166.745 Z" fill="#000000" fill-rule="nonzero" fill-opacity="1" /><path clip-path="url(#clip630)" d="M474.011 158.458 L478.896 158.458 L478.896 162.439 L475.099 169.847 L472.113 169.847 L474.011 162.439 L474.011 158.458 Z" fill="#000000" fill-rule="nonzero" fill-opacity="1" /><path clip-path="url(#clip630)" d="M509.544 138.412 L500.169 151.027 L510.03 164.338 L505.007 164.338 L497.46 154.152 L489.914 164.338 L484.891 164.338 L494.96 150.773 L485.747 138.412 L490.77 138.412 L497.645 147.648 L504.52 138.412 L509.544 138.412 Z" fill="#000000" fill-rule="nonzero" fill-opacity="1" /><path clip-path="url(#clip630)" d="M515.377 128.366 L519.081 128.366 Q522.553 133.828 524.266 139.06 Q526.002 144.291 526.002 149.453 Q526.002 154.639 524.266 159.893 Q522.553 165.148 519.081 170.588 L515.377 170.588 Q518.456 165.287 519.96 160.055 Q521.488 154.801 521.488 149.453 Q521.488 144.106 519.96 138.898 Q518.456 133.69 515.377 128.366 Z" fill="#000000" fill-rule="nonzero" fill-opacity="1" /></svg>
